G75*
%MOIN*%
%OFA0B0*%
%FSLAX25Y25*%
%IPPOS*%
%LPD*%
%AMOC8*
5,1,8,0,0,1.08239X$1,22.5*
%
%ADD10C,0.00000*%
%ADD11C,0.07400*%
%ADD12C,0.09000*%
%ADD13R,0.08000X0.08000*%
%ADD14C,0.08000*%
%ADD15R,0.07400X0.07400*%
%ADD16C,0.07600*%
%ADD17R,0.07600X0.07600*%
%ADD18R,0.06500X0.06500*%
%ADD19C,0.06500*%
%ADD20C,0.04800*%
%ADD21C,0.02400*%
%ADD22C,0.15000*%
%ADD23C,0.06600*%
%ADD24R,0.03562X0.03562*%
D10*
X0001500Y0011000D02*
X0001500Y0208461D01*
X0001503Y0208703D01*
X0001512Y0208944D01*
X0001526Y0209185D01*
X0001547Y0209426D01*
X0001573Y0209666D01*
X0001605Y0209906D01*
X0001643Y0210145D01*
X0001686Y0210382D01*
X0001736Y0210619D01*
X0001791Y0210854D01*
X0001851Y0211088D01*
X0001918Y0211320D01*
X0001989Y0211551D01*
X0002067Y0211780D01*
X0002150Y0212007D01*
X0002238Y0212232D01*
X0002332Y0212455D01*
X0002431Y0212675D01*
X0002536Y0212893D01*
X0002645Y0213108D01*
X0002760Y0213321D01*
X0002880Y0213531D01*
X0003005Y0213737D01*
X0003135Y0213941D01*
X0003270Y0214142D01*
X0003410Y0214339D01*
X0003554Y0214533D01*
X0003703Y0214723D01*
X0003857Y0214909D01*
X0004015Y0215092D01*
X0004177Y0215271D01*
X0004344Y0215446D01*
X0004515Y0215617D01*
X0004690Y0215784D01*
X0004869Y0215946D01*
X0005052Y0216104D01*
X0005238Y0216258D01*
X0005428Y0216407D01*
X0005622Y0216551D01*
X0005819Y0216691D01*
X0006020Y0216826D01*
X0006224Y0216956D01*
X0006430Y0217081D01*
X0006640Y0217201D01*
X0006853Y0217316D01*
X0007068Y0217425D01*
X0007286Y0217530D01*
X0007506Y0217629D01*
X0007729Y0217723D01*
X0007954Y0217811D01*
X0008181Y0217894D01*
X0008410Y0217972D01*
X0008641Y0218043D01*
X0008873Y0218110D01*
X0009107Y0218170D01*
X0009342Y0218225D01*
X0009579Y0218275D01*
X0009816Y0218318D01*
X0010055Y0218356D01*
X0010295Y0218388D01*
X0010535Y0218414D01*
X0010776Y0218435D01*
X0011017Y0218449D01*
X0011258Y0218458D01*
X0011500Y0218461D01*
X0141762Y0218461D01*
X0162650Y0227118D02*
X0190350Y0254842D01*
X0211238Y0263500D02*
X0311972Y0263500D01*
X0312686Y0263491D01*
X0313399Y0263466D01*
X0314111Y0263422D01*
X0314822Y0263362D01*
X0315531Y0263285D01*
X0316238Y0263190D01*
X0316943Y0263079D01*
X0317645Y0262950D01*
X0318344Y0262804D01*
X0319039Y0262642D01*
X0319729Y0262463D01*
X0320415Y0262267D01*
X0321097Y0262055D01*
X0321773Y0261826D01*
X0322443Y0261581D01*
X0323107Y0261320D01*
X0323764Y0261043D01*
X0324415Y0260750D01*
X0325059Y0260442D01*
X0325694Y0260118D01*
X0326322Y0259779D01*
X0326942Y0259424D01*
X0327552Y0259055D01*
X0328154Y0258671D01*
X0328746Y0258273D01*
X0329328Y0257861D01*
X0329900Y0257434D01*
X0330462Y0256994D01*
X0331013Y0256541D01*
X0331553Y0256074D01*
X0332081Y0255594D01*
X0332598Y0255102D01*
X0333102Y0254598D01*
X0333594Y0254081D01*
X0334074Y0253553D01*
X0334541Y0253013D01*
X0334994Y0252462D01*
X0335434Y0251900D01*
X0335861Y0251328D01*
X0336273Y0250746D01*
X0336671Y0250154D01*
X0337055Y0249552D01*
X0337424Y0248942D01*
X0337779Y0248322D01*
X0338118Y0247694D01*
X0338442Y0247059D01*
X0338750Y0246415D01*
X0339043Y0245764D01*
X0339320Y0245107D01*
X0339581Y0244443D01*
X0339826Y0243773D01*
X0340055Y0243097D01*
X0340267Y0242415D01*
X0340463Y0241729D01*
X0340642Y0241039D01*
X0340804Y0240344D01*
X0340950Y0239645D01*
X0341079Y0238943D01*
X0341190Y0238238D01*
X0341285Y0237531D01*
X0341362Y0236822D01*
X0341422Y0236111D01*
X0341466Y0235399D01*
X0341491Y0234686D01*
X0341500Y0233972D01*
X0341500Y0084982D01*
X0344237Y0078108D02*
X0362463Y0058853D01*
X0365201Y0051978D02*
X0365201Y0011000D01*
X0365198Y0010758D01*
X0365189Y0010517D01*
X0365175Y0010276D01*
X0365154Y0010035D01*
X0365128Y0009795D01*
X0365096Y0009555D01*
X0365058Y0009316D01*
X0365015Y0009079D01*
X0364965Y0008842D01*
X0364910Y0008607D01*
X0364850Y0008373D01*
X0364783Y0008141D01*
X0364712Y0007910D01*
X0364634Y0007681D01*
X0364551Y0007454D01*
X0364463Y0007229D01*
X0364369Y0007006D01*
X0364270Y0006786D01*
X0364165Y0006568D01*
X0364056Y0006353D01*
X0363941Y0006140D01*
X0363821Y0005930D01*
X0363696Y0005724D01*
X0363566Y0005520D01*
X0363431Y0005319D01*
X0363291Y0005122D01*
X0363147Y0004928D01*
X0362998Y0004738D01*
X0362844Y0004552D01*
X0362686Y0004369D01*
X0362524Y0004190D01*
X0362357Y0004015D01*
X0362186Y0003844D01*
X0362011Y0003677D01*
X0361832Y0003515D01*
X0361649Y0003357D01*
X0361463Y0003203D01*
X0361273Y0003054D01*
X0361079Y0002910D01*
X0360882Y0002770D01*
X0360681Y0002635D01*
X0360477Y0002505D01*
X0360271Y0002380D01*
X0360061Y0002260D01*
X0359848Y0002145D01*
X0359633Y0002036D01*
X0359415Y0001931D01*
X0359195Y0001832D01*
X0358972Y0001738D01*
X0358747Y0001650D01*
X0358520Y0001567D01*
X0358291Y0001489D01*
X0358060Y0001418D01*
X0357828Y0001351D01*
X0357594Y0001291D01*
X0357359Y0001236D01*
X0357122Y0001186D01*
X0356885Y0001143D01*
X0356646Y0001105D01*
X0356406Y0001073D01*
X0356166Y0001047D01*
X0355925Y0001026D01*
X0355684Y0001012D01*
X0355443Y0001003D01*
X0355201Y0001000D01*
X0011500Y0001000D01*
X0011258Y0001003D01*
X0011017Y0001012D01*
X0010776Y0001026D01*
X0010535Y0001047D01*
X0010295Y0001073D01*
X0010055Y0001105D01*
X0009816Y0001143D01*
X0009579Y0001186D01*
X0009342Y0001236D01*
X0009107Y0001291D01*
X0008873Y0001351D01*
X0008641Y0001418D01*
X0008410Y0001489D01*
X0008181Y0001567D01*
X0007954Y0001650D01*
X0007729Y0001738D01*
X0007506Y0001832D01*
X0007286Y0001931D01*
X0007068Y0002036D01*
X0006853Y0002145D01*
X0006640Y0002260D01*
X0006430Y0002380D01*
X0006224Y0002505D01*
X0006020Y0002635D01*
X0005819Y0002770D01*
X0005622Y0002910D01*
X0005428Y0003054D01*
X0005238Y0003203D01*
X0005052Y0003357D01*
X0004869Y0003515D01*
X0004690Y0003677D01*
X0004515Y0003844D01*
X0004344Y0004015D01*
X0004177Y0004190D01*
X0004015Y0004369D01*
X0003857Y0004552D01*
X0003703Y0004738D01*
X0003554Y0004928D01*
X0003410Y0005122D01*
X0003270Y0005319D01*
X0003135Y0005520D01*
X0003005Y0005724D01*
X0002880Y0005930D01*
X0002760Y0006140D01*
X0002645Y0006353D01*
X0002536Y0006568D01*
X0002431Y0006786D01*
X0002332Y0007006D01*
X0002238Y0007229D01*
X0002150Y0007454D01*
X0002067Y0007681D01*
X0001989Y0007910D01*
X0001918Y0008141D01*
X0001851Y0008373D01*
X0001791Y0008607D01*
X0001736Y0008842D01*
X0001686Y0009079D01*
X0001643Y0009316D01*
X0001605Y0009555D01*
X0001573Y0009795D01*
X0001547Y0010035D01*
X0001526Y0010276D01*
X0001512Y0010517D01*
X0001503Y0010758D01*
X0001500Y0011000D01*
X0190349Y0254842D02*
X0190852Y0255334D01*
X0191367Y0255813D01*
X0191892Y0256280D01*
X0192429Y0256734D01*
X0192976Y0257176D01*
X0193534Y0257604D01*
X0194102Y0258019D01*
X0194679Y0258420D01*
X0195266Y0258807D01*
X0195862Y0259181D01*
X0196467Y0259540D01*
X0197080Y0259884D01*
X0197701Y0260214D01*
X0198329Y0260529D01*
X0198965Y0260829D01*
X0199608Y0261113D01*
X0200258Y0261383D01*
X0200914Y0261636D01*
X0201575Y0261874D01*
X0202242Y0262096D01*
X0202914Y0262303D01*
X0203591Y0262493D01*
X0204273Y0262667D01*
X0204958Y0262824D01*
X0205647Y0262966D01*
X0206339Y0263091D01*
X0207033Y0263199D01*
X0207731Y0263291D01*
X0208430Y0263366D01*
X0209130Y0263425D01*
X0209832Y0263467D01*
X0210535Y0263492D01*
X0211238Y0263500D01*
X0162651Y0227118D02*
X0162148Y0226626D01*
X0161633Y0226147D01*
X0161108Y0225680D01*
X0160571Y0225226D01*
X0160024Y0224784D01*
X0159466Y0224356D01*
X0158898Y0223941D01*
X0158321Y0223540D01*
X0157734Y0223153D01*
X0157138Y0222779D01*
X0156533Y0222420D01*
X0155920Y0222076D01*
X0155299Y0221746D01*
X0154671Y0221431D01*
X0154035Y0221131D01*
X0153392Y0220847D01*
X0152742Y0220577D01*
X0152086Y0220324D01*
X0151425Y0220086D01*
X0150758Y0219864D01*
X0150086Y0219657D01*
X0149409Y0219467D01*
X0148727Y0219293D01*
X0148042Y0219136D01*
X0147353Y0218994D01*
X0146661Y0218869D01*
X0145967Y0218761D01*
X0145269Y0218669D01*
X0144570Y0218594D01*
X0143870Y0218535D01*
X0143168Y0218493D01*
X0142465Y0218468D01*
X0141762Y0218460D01*
X0341500Y0084982D02*
X0341503Y0084738D01*
X0341512Y0084493D01*
X0341527Y0084249D01*
X0341548Y0084006D01*
X0341575Y0083763D01*
X0341607Y0083520D01*
X0341646Y0083279D01*
X0341691Y0083038D01*
X0341741Y0082799D01*
X0341797Y0082561D01*
X0341859Y0082325D01*
X0341927Y0082090D01*
X0342001Y0081857D01*
X0342080Y0081625D01*
X0342165Y0081396D01*
X0342255Y0081169D01*
X0342351Y0080944D01*
X0342453Y0080722D01*
X0342560Y0080502D01*
X0342672Y0080285D01*
X0342789Y0080070D01*
X0342912Y0079859D01*
X0343040Y0079650D01*
X0343173Y0079445D01*
X0343311Y0079243D01*
X0343453Y0079045D01*
X0343601Y0078850D01*
X0343753Y0078658D01*
X0343910Y0078471D01*
X0344072Y0078287D01*
X0344237Y0078108D01*
X0362464Y0058852D02*
X0362629Y0058673D01*
X0362791Y0058489D01*
X0362948Y0058302D01*
X0363100Y0058110D01*
X0363248Y0057915D01*
X0363390Y0057717D01*
X0363528Y0057515D01*
X0363661Y0057310D01*
X0363789Y0057101D01*
X0363912Y0056890D01*
X0364029Y0056675D01*
X0364141Y0056458D01*
X0364248Y0056238D01*
X0364350Y0056016D01*
X0364446Y0055791D01*
X0364536Y0055564D01*
X0364621Y0055335D01*
X0364700Y0055103D01*
X0364774Y0054870D01*
X0364842Y0054635D01*
X0364904Y0054399D01*
X0364960Y0054161D01*
X0365010Y0053922D01*
X0365055Y0053681D01*
X0365094Y0053440D01*
X0365126Y0053197D01*
X0365153Y0052954D01*
X0365174Y0052711D01*
X0365189Y0052467D01*
X0365198Y0052222D01*
X0365201Y0051978D01*
D11*
X0256500Y0066000D03*
X0246500Y0066000D03*
X0246500Y0096000D03*
X0256500Y0096000D03*
X0229000Y0111000D03*
X0219000Y0111000D03*
X0221500Y0121000D03*
X0221500Y0131000D03*
X0221500Y0141000D03*
X0211500Y0141000D03*
X0211500Y0131000D03*
X0211500Y0121000D03*
X0201500Y0121000D03*
X0201500Y0111000D03*
X0201500Y0101000D03*
X0201500Y0091000D03*
X0201500Y0081000D03*
X0201500Y0071000D03*
X0246500Y0126000D03*
X0256500Y0126000D03*
X0256500Y0156000D03*
X0246500Y0156000D03*
X0221500Y0156000D03*
X0221500Y0166000D03*
X0221500Y0176000D03*
X0221500Y0186000D03*
X0211500Y0186000D03*
X0211500Y0176000D03*
X0211500Y0166000D03*
X0211500Y0156000D03*
X0201500Y0156000D03*
X0201500Y0166000D03*
X0201500Y0176000D03*
X0201500Y0186000D03*
X0201500Y0196000D03*
X0201500Y0206000D03*
X0201500Y0216000D03*
X0201500Y0226000D03*
X0201500Y0236000D03*
X0201500Y0246000D03*
X0221500Y0246000D03*
X0231500Y0246000D03*
X0246500Y0246000D03*
X0256500Y0246000D03*
X0256500Y0216000D03*
X0246500Y0216000D03*
X0246500Y0186000D03*
X0256500Y0186000D03*
X0201500Y0141000D03*
X0201500Y0131000D03*
X0186500Y0141000D03*
X0176500Y0156000D03*
X0171500Y0163500D03*
X0166500Y0156000D03*
X0156500Y0161000D03*
X0146500Y0161000D03*
X0131500Y0156000D03*
X0126500Y0163500D03*
X0121500Y0156000D03*
X0106500Y0161000D03*
X0096500Y0161000D03*
X0084000Y0171000D03*
X0084000Y0181000D03*
X0074000Y0176000D03*
X0074000Y0166000D03*
X0096500Y0181000D03*
X0096500Y0191000D03*
X0116500Y0191000D03*
X0116500Y0181000D03*
X0141500Y0181000D03*
X0141500Y0191000D03*
X0161500Y0191000D03*
X0161500Y0181000D03*
X0146500Y0141000D03*
X0131500Y0141000D03*
X0091500Y0141000D03*
X0061500Y0133500D03*
X0061500Y0123500D03*
X0011500Y0121000D03*
X0011500Y0111000D03*
X0011500Y0101000D03*
X0011500Y0091000D03*
X0011500Y0081000D03*
X0011500Y0071000D03*
X0011500Y0141000D03*
X0011500Y0151000D03*
X0011500Y0161000D03*
X0011500Y0171000D03*
X0011500Y0181000D03*
X0011500Y0191000D03*
X0011500Y0201000D03*
X0011500Y0211000D03*
D12*
X0101500Y0126000D03*
X0131500Y0126000D03*
X0146500Y0126000D03*
X0176500Y0126000D03*
X0176500Y0086000D03*
X0176500Y0066000D03*
X0146500Y0076000D03*
X0131500Y0066000D03*
X0131500Y0086000D03*
X0101500Y0076000D03*
D13*
X0106500Y0036000D03*
X0151500Y0036000D03*
X0196500Y0036000D03*
X0241500Y0036000D03*
X0286500Y0036000D03*
X0331500Y0036000D03*
X0061500Y0036000D03*
X0016500Y0036000D03*
D14*
X0036185Y0036000D03*
X0081185Y0036000D03*
X0126185Y0036000D03*
X0171185Y0036000D03*
X0216185Y0036000D03*
X0261185Y0036000D03*
X0306185Y0036000D03*
X0351185Y0036000D03*
D15*
X0061500Y0113500D03*
D16*
X0061657Y0076000D03*
D17*
X0081343Y0076000D03*
D18*
X0088921Y0111000D03*
D19*
X0079079Y0111000D03*
D20*
X0063900Y0156000D02*
X0059100Y0156000D01*
X0059100Y0166000D02*
X0063900Y0166000D01*
X0063900Y0176000D02*
X0059100Y0176000D01*
X0059100Y0186000D02*
X0063900Y0186000D01*
X0033900Y0186000D02*
X0029100Y0186000D01*
X0029100Y0176000D02*
X0033900Y0176000D01*
X0033900Y0166000D02*
X0029100Y0166000D01*
X0029100Y0156000D02*
X0033900Y0156000D01*
D21*
X0004784Y0009936D02*
X0005250Y0008500D01*
X0361450Y0008500D01*
X0361917Y0009936D01*
X0362001Y0011000D01*
X0362001Y0051978D01*
X0361947Y0052835D01*
X0361518Y0054494D01*
X0360689Y0055994D01*
X0360139Y0056653D01*
X0359702Y0057115D01*
X0359702Y0057115D01*
X0347608Y0069892D01*
X0339000Y0078500D01*
X0339000Y0080594D01*
X0338300Y0083306D01*
X0338300Y0083306D01*
X0338300Y0233972D01*
X0338173Y0236553D01*
X0337484Y0240015D01*
X0318015Y0259484D01*
X0314553Y0260173D01*
X0311972Y0260300D01*
X0211238Y0260300D01*
X0208656Y0260173D01*
X0203592Y0259165D01*
X0201155Y0258155D01*
X0192600Y0249600D01*
X0196473Y0249600D01*
X0198045Y0251171D01*
X0200287Y0252100D01*
X0202713Y0252100D01*
X0204955Y0251171D01*
X0206671Y0249455D01*
X0207600Y0247213D01*
X0207600Y0244787D01*
X0206671Y0242545D01*
X0205127Y0241000D01*
X0206671Y0239455D01*
X0207600Y0237213D01*
X0207600Y0234787D01*
X0206671Y0232545D01*
X0205127Y0231000D01*
X0206671Y0229455D01*
X0207600Y0227213D01*
X0207600Y0224787D01*
X0206671Y0222545D01*
X0204955Y0220829D01*
X0204915Y0220812D01*
X0205344Y0220500D01*
X0206000Y0219844D01*
X0206546Y0219092D01*
X0206968Y0218265D01*
X0207255Y0217382D01*
X0207400Y0216464D01*
X0207400Y0216000D01*
X0201500Y0216000D01*
X0231500Y0216000D01*
X0244000Y0228500D01*
X0256500Y0228500D01*
X0256500Y0216000D01*
X0256500Y0186000D01*
X0256500Y0156000D01*
X0256500Y0126000D01*
X0256500Y0096000D01*
X0256500Y0066000D01*
X0256500Y0066000D01*
X0256500Y0071900D01*
X0256964Y0071900D01*
X0257882Y0071755D01*
X0258765Y0071468D01*
X0259592Y0071046D01*
X0260344Y0070500D01*
X0261000Y0069844D01*
X0261546Y0069092D01*
X0261968Y0068265D01*
X0262255Y0067382D01*
X0262400Y0066464D01*
X0262400Y0066000D01*
X0256500Y0066000D01*
X0256500Y0066000D01*
X0256500Y0071900D01*
X0256036Y0071900D01*
X0255118Y0071755D01*
X0254235Y0071468D01*
X0253408Y0071046D01*
X0252656Y0070500D01*
X0252000Y0069844D01*
X0251688Y0069415D01*
X0251671Y0069455D01*
X0249955Y0071171D01*
X0247713Y0072100D01*
X0245491Y0072100D01*
X0240100Y0077491D01*
X0240100Y0116716D01*
X0239681Y0117728D01*
X0242900Y0114509D01*
X0242900Y0101027D01*
X0241329Y0099455D01*
X0240400Y0097213D01*
X0240400Y0094787D01*
X0241329Y0092545D01*
X0243045Y0090829D01*
X0245287Y0089900D01*
X0247713Y0089900D01*
X0249955Y0090829D01*
X0251671Y0092545D01*
X0251688Y0092585D01*
X0252000Y0092156D01*
X0252656Y0091500D01*
X0253408Y0090954D01*
X0254235Y0090532D01*
X0255118Y0090245D01*
X0256036Y0090100D01*
X0256500Y0090100D01*
X0256964Y0090100D01*
X0257882Y0090245D01*
X0258765Y0090532D01*
X0259592Y0090954D01*
X0260344Y0091500D01*
X0261000Y0092156D01*
X0261546Y0092908D01*
X0261968Y0093735D01*
X0262255Y0094618D01*
X0262400Y0095536D01*
X0262400Y0096000D01*
X0262400Y0096464D01*
X0262255Y0097382D01*
X0261968Y0098265D01*
X0261546Y0099092D01*
X0261000Y0099844D01*
X0260344Y0100500D01*
X0259592Y0101046D01*
X0258765Y0101468D01*
X0257882Y0101755D01*
X0256964Y0101900D01*
X0256500Y0101900D01*
X0256500Y0096000D01*
X0256500Y0096000D01*
X0262400Y0096000D01*
X0256500Y0096000D01*
X0256500Y0096000D01*
X0256500Y0101900D01*
X0256036Y0101900D01*
X0255118Y0101755D01*
X0254235Y0101468D01*
X0253408Y0101046D01*
X0252656Y0100500D01*
X0252000Y0099844D01*
X0251688Y0099415D01*
X0251671Y0099455D01*
X0250100Y0101027D01*
X0250100Y0116716D01*
X0249552Y0118039D01*
X0248539Y0119052D01*
X0247691Y0119900D01*
X0247713Y0119900D01*
X0249955Y0120829D01*
X0251671Y0122545D01*
X0251688Y0122585D01*
X0252000Y0122156D01*
X0252656Y0121500D01*
X0253408Y0120954D01*
X0254235Y0120532D01*
X0255118Y0120245D01*
X0256036Y0120100D01*
X0256500Y0120100D01*
X0256964Y0120100D01*
X0257882Y0120245D01*
X0258765Y0120532D01*
X0259592Y0120954D01*
X0260344Y0121500D01*
X0261000Y0122156D01*
X0261546Y0122908D01*
X0261968Y0123735D01*
X0262255Y0124618D01*
X0262400Y0125536D01*
X0262400Y0126000D01*
X0262400Y0126464D01*
X0262255Y0127382D01*
X0261968Y0128265D01*
X0261546Y0129092D01*
X0261000Y0129844D01*
X0260344Y0130500D01*
X0259592Y0131046D01*
X0258765Y0131468D01*
X0257882Y0131755D01*
X0256964Y0131900D01*
X0256500Y0131900D01*
X0256500Y0126000D01*
X0256500Y0126000D01*
X0262400Y0126000D01*
X0256500Y0126000D01*
X0256500Y0126000D01*
X0256500Y0131900D01*
X0256036Y0131900D01*
X0255118Y0131755D01*
X0254235Y0131468D01*
X0253408Y0131046D01*
X0252656Y0130500D01*
X0252000Y0129844D01*
X0251688Y0129415D01*
X0251671Y0129455D01*
X0250100Y0131027D01*
X0250100Y0141716D01*
X0249552Y0143039D01*
X0248539Y0144052D01*
X0233539Y0159052D01*
X0232216Y0159600D01*
X0226527Y0159600D01*
X0225127Y0161000D01*
X0226527Y0162400D01*
X0235009Y0162400D01*
X0240400Y0157009D01*
X0240400Y0154787D01*
X0241329Y0152545D01*
X0243045Y0150829D01*
X0245287Y0149900D01*
X0247713Y0149900D01*
X0249955Y0150829D01*
X0251671Y0152545D01*
X0251688Y0152585D01*
X0252000Y0152156D01*
X0252656Y0151500D01*
X0253408Y0150954D01*
X0254235Y0150532D01*
X0255118Y0150245D01*
X0256036Y0150100D01*
X0256500Y0150100D01*
X0256964Y0150100D01*
X0257882Y0150245D01*
X0258765Y0150532D01*
X0259592Y0150954D01*
X0260344Y0151500D01*
X0261000Y0152156D01*
X0261546Y0152908D01*
X0261968Y0153735D01*
X0262255Y0154618D01*
X0262400Y0155536D01*
X0262400Y0156000D01*
X0262400Y0156464D01*
X0262255Y0157382D01*
X0261968Y0158265D01*
X0261546Y0159092D01*
X0261000Y0159844D01*
X0260344Y0160500D01*
X0259592Y0161046D01*
X0258765Y0161468D01*
X0257882Y0161755D01*
X0256964Y0161900D01*
X0256500Y0161900D01*
X0256500Y0156000D01*
X0256500Y0156000D01*
X0262400Y0156000D01*
X0256500Y0156000D01*
X0256500Y0156000D01*
X0256500Y0161900D01*
X0256036Y0161900D01*
X0255118Y0161755D01*
X0254235Y0161468D01*
X0253408Y0161046D01*
X0252656Y0160500D01*
X0252000Y0159844D01*
X0251688Y0159415D01*
X0251671Y0159455D01*
X0249955Y0161171D01*
X0247713Y0162100D01*
X0245491Y0162100D01*
X0238539Y0169052D01*
X0237216Y0169600D01*
X0226527Y0169600D01*
X0225127Y0171000D01*
X0226527Y0172400D01*
X0237216Y0172400D01*
X0238539Y0172948D01*
X0245491Y0179900D01*
X0247713Y0179900D01*
X0249955Y0180829D01*
X0251671Y0182545D01*
X0251688Y0182585D01*
X0252000Y0182156D01*
X0252656Y0181500D01*
X0253408Y0180954D01*
X0254235Y0180532D01*
X0255118Y0180245D01*
X0256036Y0180100D01*
X0256500Y0180100D01*
X0256964Y0180100D01*
X0257882Y0180245D01*
X0258765Y0180532D01*
X0259592Y0180954D01*
X0260344Y0181500D01*
X0261000Y0182156D01*
X0261546Y0182908D01*
X0261968Y0183735D01*
X0262255Y0184618D01*
X0262400Y0185536D01*
X0262400Y0186000D01*
X0262400Y0186464D01*
X0262255Y0187382D01*
X0261968Y0188265D01*
X0261546Y0189092D01*
X0261000Y0189844D01*
X0260344Y0190500D01*
X0259592Y0191046D01*
X0258765Y0191468D01*
X0257882Y0191755D01*
X0256964Y0191900D01*
X0256500Y0191900D01*
X0256500Y0186000D01*
X0256500Y0186000D01*
X0262400Y0186000D01*
X0256500Y0186000D01*
X0256500Y0186000D01*
X0256500Y0191900D01*
X0256036Y0191900D01*
X0255118Y0191755D01*
X0254235Y0191468D01*
X0253408Y0191046D01*
X0252656Y0190500D01*
X0252000Y0189844D01*
X0251688Y0189415D01*
X0251671Y0189455D01*
X0249955Y0191171D01*
X0247713Y0192100D01*
X0245287Y0192100D01*
X0243045Y0191171D01*
X0241329Y0189455D01*
X0240400Y0187213D01*
X0240400Y0184991D01*
X0235009Y0179600D01*
X0226527Y0179600D01*
X0225127Y0181000D01*
X0226671Y0182545D01*
X0227600Y0184787D01*
X0227600Y0187213D01*
X0226671Y0189455D01*
X0225859Y0190268D01*
X0245491Y0209900D01*
X0247713Y0209900D01*
X0249955Y0210829D01*
X0251671Y0212545D01*
X0251688Y0212585D01*
X0252000Y0212156D01*
X0252656Y0211500D01*
X0253408Y0210954D01*
X0254235Y0210532D01*
X0255118Y0210245D01*
X0256036Y0210100D01*
X0256500Y0210100D01*
X0256964Y0210100D01*
X0257882Y0210245D01*
X0258765Y0210532D01*
X0259592Y0210954D01*
X0260344Y0211500D01*
X0261000Y0212156D01*
X0261546Y0212908D01*
X0261968Y0213735D01*
X0262255Y0214618D01*
X0262400Y0215536D01*
X0262400Y0216000D01*
X0262400Y0216464D01*
X0262255Y0217382D01*
X0261968Y0218265D01*
X0261546Y0219092D01*
X0261000Y0219844D01*
X0260344Y0220500D01*
X0259592Y0221046D01*
X0258765Y0221468D01*
X0257882Y0221755D01*
X0256964Y0221900D01*
X0256500Y0221900D01*
X0256500Y0216000D01*
X0256500Y0216000D01*
X0262400Y0216000D01*
X0256500Y0216000D01*
X0256500Y0216000D01*
X0256500Y0221900D01*
X0256036Y0221900D01*
X0255118Y0221755D01*
X0254235Y0221468D01*
X0253408Y0221046D01*
X0252656Y0220500D01*
X0252000Y0219844D01*
X0251688Y0219415D01*
X0251671Y0219455D01*
X0249955Y0221171D01*
X0247713Y0222100D01*
X0245287Y0222100D01*
X0243045Y0221171D01*
X0241329Y0219455D01*
X0240400Y0217213D01*
X0240400Y0214991D01*
X0218448Y0193039D01*
X0217900Y0191716D01*
X0217900Y0191027D01*
X0216500Y0189627D01*
X0214955Y0191171D01*
X0212713Y0192100D01*
X0210287Y0192100D01*
X0208045Y0191171D01*
X0206500Y0189627D01*
X0205127Y0191000D01*
X0206671Y0192545D01*
X0207600Y0194787D01*
X0207600Y0197213D01*
X0206671Y0199455D01*
X0205127Y0201000D01*
X0206671Y0202545D01*
X0207600Y0204787D01*
X0207600Y0207213D01*
X0206671Y0209455D01*
X0204955Y0211171D01*
X0204915Y0211188D01*
X0205344Y0211500D01*
X0206000Y0212156D01*
X0206546Y0212908D01*
X0206968Y0213735D01*
X0207255Y0214618D01*
X0207400Y0215536D01*
X0207400Y0216000D01*
X0201500Y0216000D01*
X0191500Y0216000D01*
X0186500Y0211000D01*
X0186500Y0191000D01*
X0161500Y0191000D01*
X0151500Y0201000D01*
X0121500Y0201000D01*
X0116500Y0196000D01*
X0116500Y0191000D01*
X0116500Y0191000D01*
X0116500Y0196900D01*
X0116964Y0196900D01*
X0117882Y0196755D01*
X0118765Y0196468D01*
X0119592Y0196046D01*
X0120344Y0195500D01*
X0121000Y0194844D01*
X0121546Y0194092D01*
X0121968Y0193265D01*
X0122255Y0192382D01*
X0122400Y0191464D01*
X0122400Y0191000D01*
X0116500Y0191000D01*
X0116500Y0191000D01*
X0116500Y0191000D01*
X0110600Y0191000D01*
X0110600Y0191464D01*
X0110745Y0192382D01*
X0111032Y0193265D01*
X0111454Y0194092D01*
X0112000Y0194844D01*
X0112656Y0195500D01*
X0113408Y0196046D01*
X0114235Y0196468D01*
X0115118Y0196755D01*
X0116036Y0196900D01*
X0116500Y0196900D01*
X0116500Y0191000D01*
X0122400Y0191000D01*
X0122400Y0190536D01*
X0122255Y0189618D01*
X0121968Y0188735D01*
X0121546Y0187908D01*
X0121000Y0187156D01*
X0120344Y0186500D01*
X0119915Y0186188D01*
X0119955Y0186171D01*
X0121671Y0184455D01*
X0122600Y0182213D01*
X0122600Y0179787D01*
X0121671Y0177545D01*
X0119955Y0175829D01*
X0117713Y0174900D01*
X0115287Y0174900D01*
X0113045Y0175829D01*
X0111473Y0177400D01*
X0110784Y0177400D01*
X0109461Y0177948D01*
X0100768Y0186641D01*
X0100127Y0186000D01*
X0101671Y0184455D01*
X0102600Y0182213D01*
X0102600Y0179787D01*
X0101671Y0177545D01*
X0100100Y0175973D01*
X0100100Y0166027D01*
X0101500Y0164627D01*
X0103045Y0166171D01*
X0105287Y0167100D01*
X0107713Y0167100D01*
X0109955Y0166171D01*
X0111671Y0164455D01*
X0112600Y0162213D01*
X0112600Y0159787D01*
X0111671Y0157545D01*
X0109955Y0155829D01*
X0107713Y0154900D01*
X0105287Y0154900D01*
X0103045Y0155829D01*
X0101500Y0157373D01*
X0099955Y0155829D01*
X0097713Y0154900D01*
X0095287Y0154900D01*
X0093045Y0155829D01*
X0091329Y0157545D01*
X0090400Y0159787D01*
X0090400Y0162213D01*
X0091329Y0164455D01*
X0092900Y0166027D01*
X0092900Y0175973D01*
X0091329Y0177545D01*
X0090400Y0179787D01*
X0090400Y0182213D01*
X0091329Y0184455D01*
X0092873Y0186000D01*
X0091329Y0187545D01*
X0090400Y0189787D01*
X0090400Y0192213D01*
X0090468Y0192376D01*
X0088181Y0190090D01*
X0088181Y0188741D01*
X0087816Y0187859D01*
X0087141Y0187184D01*
X0086258Y0186819D01*
X0085892Y0186819D01*
X0087455Y0186171D01*
X0089171Y0184455D01*
X0090100Y0182213D01*
X0090100Y0179787D01*
X0089171Y0177545D01*
X0087627Y0176000D01*
X0089171Y0174455D01*
X0090100Y0172213D01*
X0090100Y0169787D01*
X0089171Y0167545D01*
X0087455Y0165829D01*
X0085213Y0164900D01*
X0082991Y0164900D01*
X0082052Y0163961D01*
X0081039Y0162948D01*
X0079716Y0162400D01*
X0079027Y0162400D01*
X0077600Y0160973D01*
X0077600Y0145284D01*
X0077052Y0143961D01*
X0067600Y0134509D01*
X0067600Y0132287D01*
X0066671Y0130045D01*
X0064955Y0128329D01*
X0064915Y0128312D01*
X0065344Y0128000D01*
X0066000Y0127344D01*
X0066546Y0126592D01*
X0066968Y0125765D01*
X0067255Y0124882D01*
X0067400Y0123964D01*
X0067400Y0123500D01*
X0061500Y0123500D01*
X0061500Y0123500D01*
X0067400Y0123500D01*
X0067400Y0123036D01*
X0067255Y0122118D01*
X0066968Y0121235D01*
X0066546Y0120408D01*
X0066000Y0119656D01*
X0065866Y0119522D01*
X0066559Y0119235D01*
X0067235Y0118559D01*
X0067600Y0117677D01*
X0067600Y0109323D01*
X0067235Y0108441D01*
X0067200Y0108406D01*
X0067200Y0108361D01*
X0084729Y0090832D01*
X0086332Y0089229D01*
X0087200Y0087134D01*
X0087200Y0085900D01*
X0103469Y0085900D01*
X0107108Y0084393D01*
X0109893Y0081608D01*
X0111400Y0077969D01*
X0111400Y0074031D01*
X0109893Y0070392D01*
X0107108Y0067607D01*
X0103469Y0066100D01*
X0091243Y0066100D01*
X0091243Y0051688D01*
X0091085Y0051308D01*
X0091085Y0034031D01*
X0089578Y0030392D01*
X0086793Y0027607D01*
X0083154Y0026100D01*
X0079216Y0026100D01*
X0075577Y0027607D01*
X0072792Y0030392D01*
X0071285Y0034031D01*
X0071285Y0057654D01*
X0071443Y0058034D01*
X0071443Y0077969D01*
X0072950Y0081608D01*
X0075390Y0084049D01*
X0056668Y0102771D01*
X0055800Y0104866D01*
X0055800Y0108406D01*
X0055765Y0108441D01*
X0055400Y0109323D01*
X0055400Y0117677D01*
X0055765Y0118559D01*
X0056441Y0119235D01*
X0057134Y0119522D01*
X0057000Y0119656D01*
X0056454Y0120408D01*
X0056032Y0121235D01*
X0055745Y0122118D01*
X0055600Y0123036D01*
X0055600Y0123500D01*
X0061500Y0123500D01*
X0061500Y0123500D01*
X0055600Y0123500D01*
X0055600Y0123964D01*
X0055745Y0124882D01*
X0056032Y0125765D01*
X0056454Y0126592D01*
X0057000Y0127344D01*
X0057656Y0128000D01*
X0058085Y0128312D01*
X0058045Y0128329D01*
X0056473Y0129900D01*
X0053284Y0129900D01*
X0051961Y0130448D01*
X0031209Y0151200D01*
X0028145Y0151200D01*
X0026381Y0151931D01*
X0025031Y0153281D01*
X0024300Y0155045D01*
X0024300Y0155609D01*
X0017124Y0162785D01*
X0017255Y0162382D01*
X0017400Y0161464D01*
X0017400Y0161000D01*
X0011500Y0161000D01*
X0011500Y0161000D01*
X0017400Y0161000D01*
X0017400Y0160536D01*
X0017255Y0159618D01*
X0016968Y0158735D01*
X0016546Y0157908D01*
X0016000Y0157156D01*
X0015344Y0156500D01*
X0014656Y0156000D01*
X0015344Y0155500D01*
X0016000Y0154844D01*
X0016546Y0154092D01*
X0016968Y0153265D01*
X0017255Y0152382D01*
X0017400Y0151464D01*
X0017400Y0151000D01*
X0011500Y0151000D01*
X0011500Y0151000D01*
X0011500Y0151000D01*
X0011500Y0161000D01*
X0011500Y0161000D01*
X0005600Y0161000D01*
X0005600Y0161464D01*
X0005745Y0162382D01*
X0006032Y0163265D01*
X0006454Y0164092D01*
X0007000Y0164844D01*
X0007656Y0165500D01*
X0008085Y0165812D01*
X0008045Y0165829D01*
X0006329Y0167545D01*
X0005400Y0169787D01*
X0005400Y0172213D01*
X0006329Y0174455D01*
X0007873Y0176000D01*
X0006329Y0177545D01*
X0005400Y0179787D01*
X0005400Y0182213D01*
X0006329Y0184455D01*
X0007873Y0186000D01*
X0006329Y0187545D01*
X0005400Y0189787D01*
X0005400Y0192213D01*
X0006329Y0194455D01*
X0007873Y0196000D01*
X0006329Y0197545D01*
X0005400Y0199787D01*
X0005400Y0202213D01*
X0006329Y0204455D01*
X0007873Y0206000D01*
X0006329Y0207545D01*
X0005400Y0209787D01*
X0005400Y0209900D01*
X0004763Y0209263D01*
X0004700Y0208461D01*
X0004700Y0011000D01*
X0004784Y0009936D01*
X0004732Y0010594D02*
X0361969Y0010594D01*
X0362001Y0012993D02*
X0004700Y0012993D01*
X0004700Y0015391D02*
X0362001Y0015391D01*
X0362001Y0017790D02*
X0004700Y0017790D01*
X0004700Y0020188D02*
X0362001Y0020188D01*
X0362001Y0022587D02*
X0004700Y0022587D01*
X0004700Y0024985D02*
X0362001Y0024985D01*
X0362001Y0027384D02*
X0176253Y0027384D01*
X0176793Y0027607D02*
X0184893Y0035707D01*
X0186400Y0039346D01*
X0186400Y0043284D01*
X0186400Y0067969D01*
X0184893Y0071608D01*
X0182108Y0074393D01*
X0178469Y0075900D01*
X0174531Y0075900D01*
X0170892Y0074393D01*
X0168107Y0071608D01*
X0166600Y0067969D01*
X0166600Y0045416D01*
X0162792Y0041608D01*
X0161285Y0037969D01*
X0161285Y0034031D01*
X0162792Y0030392D01*
X0165577Y0027607D01*
X0169216Y0026100D01*
X0173154Y0026100D01*
X0176793Y0027607D01*
X0178968Y0029782D02*
X0214472Y0029782D01*
X0214912Y0029600D02*
X0217458Y0029600D01*
X0219810Y0030574D01*
X0221611Y0032375D01*
X0222585Y0034727D01*
X0222585Y0037273D01*
X0221611Y0039625D01*
X0219810Y0041426D01*
X0217458Y0042400D01*
X0214912Y0042400D01*
X0212560Y0041426D01*
X0210759Y0039625D01*
X0209785Y0037273D01*
X0209785Y0034727D01*
X0210759Y0032375D01*
X0212560Y0030574D01*
X0214912Y0029600D01*
X0217898Y0029782D02*
X0236583Y0029782D01*
X0237023Y0029600D02*
X0245977Y0029600D01*
X0246859Y0029965D01*
X0247535Y0030641D01*
X0247900Y0031523D01*
X0247900Y0040477D01*
X0247535Y0041359D01*
X0246859Y0042035D01*
X0245977Y0042400D01*
X0237023Y0042400D01*
X0236141Y0042035D01*
X0235465Y0041359D01*
X0235100Y0040477D01*
X0235100Y0031523D01*
X0235465Y0030641D01*
X0236141Y0029965D01*
X0237023Y0029600D01*
X0235100Y0032181D02*
X0221417Y0032181D01*
X0222524Y0034579D02*
X0235100Y0034579D01*
X0235100Y0036978D02*
X0222585Y0036978D01*
X0221714Y0039376D02*
X0235100Y0039376D01*
X0235881Y0041775D02*
X0218968Y0041775D01*
X0213402Y0041775D02*
X0201826Y0041775D01*
X0201851Y0041760D02*
X0201349Y0042050D01*
X0200790Y0042200D01*
X0196580Y0042200D01*
X0196580Y0036080D01*
X0202700Y0036080D01*
X0202700Y0040290D01*
X0202550Y0040849D01*
X0202260Y0041351D01*
X0201851Y0041760D01*
X0202700Y0039376D02*
X0210656Y0039376D01*
X0209785Y0036978D02*
X0202700Y0036978D01*
X0202700Y0035920D02*
X0196580Y0035920D01*
X0196580Y0036080D01*
X0196420Y0036080D01*
X0196420Y0042200D01*
X0192210Y0042200D01*
X0191651Y0042050D01*
X0191149Y0041760D01*
X0190740Y0041351D01*
X0190450Y0040849D01*
X0190300Y0040290D01*
X0190300Y0036080D01*
X0196420Y0036080D01*
X0196420Y0035920D01*
X0196580Y0035920D01*
X0196580Y0029800D01*
X0200790Y0029800D01*
X0201349Y0029950D01*
X0201851Y0030240D01*
X0202260Y0030649D01*
X0202550Y0031151D01*
X0202700Y0031710D01*
X0202700Y0035920D01*
X0202700Y0034579D02*
X0209846Y0034579D01*
X0210953Y0032181D02*
X0202700Y0032181D01*
X0196580Y0032181D02*
X0196420Y0032181D01*
X0196420Y0029800D02*
X0192210Y0029800D01*
X0191651Y0029950D01*
X0191149Y0030240D01*
X0190740Y0030649D01*
X0190450Y0031151D01*
X0190300Y0031710D01*
X0190300Y0035920D01*
X0196420Y0035920D01*
X0196420Y0029800D01*
X0196420Y0034579D02*
X0196580Y0034579D01*
X0196580Y0036978D02*
X0196420Y0036978D01*
X0196420Y0039376D02*
X0196580Y0039376D01*
X0196580Y0041775D02*
X0196420Y0041775D01*
X0191174Y0041775D02*
X0186400Y0041775D01*
X0186400Y0044173D02*
X0362001Y0044173D01*
X0362001Y0041775D02*
X0353968Y0041775D01*
X0354810Y0041426D02*
X0352458Y0042400D01*
X0349912Y0042400D01*
X0347560Y0041426D01*
X0345759Y0039625D01*
X0344785Y0037273D01*
X0344785Y0034727D01*
X0345759Y0032375D01*
X0347560Y0030574D01*
X0349912Y0029600D01*
X0352458Y0029600D01*
X0354810Y0030574D01*
X0356611Y0032375D01*
X0357585Y0034727D01*
X0357585Y0037273D01*
X0356611Y0039625D01*
X0354810Y0041426D01*
X0356714Y0039376D02*
X0362001Y0039376D01*
X0362001Y0036978D02*
X0357585Y0036978D01*
X0357524Y0034579D02*
X0362001Y0034579D01*
X0362001Y0032181D02*
X0356417Y0032181D01*
X0352898Y0029782D02*
X0362001Y0029782D01*
X0349472Y0029782D02*
X0336417Y0029782D01*
X0335977Y0029600D02*
X0336859Y0029965D01*
X0337535Y0030641D01*
X0337900Y0031523D01*
X0337900Y0040477D01*
X0337535Y0041359D01*
X0336859Y0042035D01*
X0335977Y0042400D01*
X0327023Y0042400D01*
X0326141Y0042035D01*
X0325465Y0041359D01*
X0325100Y0040477D01*
X0325100Y0031523D01*
X0325465Y0030641D01*
X0326141Y0029965D01*
X0327023Y0029600D01*
X0335977Y0029600D01*
X0337900Y0032181D02*
X0345953Y0032181D01*
X0344846Y0034579D02*
X0337900Y0034579D01*
X0337900Y0036978D02*
X0344785Y0036978D01*
X0345656Y0039376D02*
X0337900Y0039376D01*
X0337119Y0041775D02*
X0348402Y0041775D01*
X0362001Y0046572D02*
X0186400Y0046572D01*
X0186400Y0048970D02*
X0362001Y0048970D01*
X0362001Y0051369D02*
X0186400Y0051369D01*
X0186400Y0053767D02*
X0361706Y0053767D01*
X0360545Y0056166D02*
X0186400Y0056166D01*
X0186400Y0058564D02*
X0358330Y0058564D01*
X0356060Y0060963D02*
X0259605Y0060963D01*
X0259592Y0060954D02*
X0260344Y0061500D01*
X0261000Y0062156D01*
X0261546Y0062908D01*
X0261968Y0063735D01*
X0262255Y0064618D01*
X0262400Y0065536D01*
X0262400Y0066000D01*
X0256500Y0066000D01*
X0256500Y0060100D01*
X0256964Y0060100D01*
X0257882Y0060245D01*
X0258765Y0060532D01*
X0259592Y0060954D01*
X0256500Y0060963D02*
X0256500Y0060963D01*
X0256500Y0060100D02*
X0256500Y0066000D01*
X0256500Y0066000D01*
X0256500Y0065760D02*
X0256500Y0065760D01*
X0256500Y0068158D02*
X0256500Y0068158D01*
X0256500Y0070557D02*
X0256500Y0070557D01*
X0252734Y0070557D02*
X0250570Y0070557D01*
X0246500Y0066000D02*
X0236500Y0076000D01*
X0236500Y0116000D01*
X0221500Y0131000D01*
X0229876Y0137715D02*
X0242900Y0137715D01*
X0242900Y0139509D02*
X0242900Y0131027D01*
X0241329Y0129455D01*
X0240400Y0127213D01*
X0240400Y0127191D01*
X0227600Y0139991D01*
X0227600Y0142213D01*
X0226671Y0144455D01*
X0224955Y0146171D01*
X0222713Y0147100D01*
X0220287Y0147100D01*
X0218045Y0146171D01*
X0216500Y0144627D01*
X0214955Y0146171D01*
X0212713Y0147100D01*
X0210287Y0147100D01*
X0208045Y0146171D01*
X0206500Y0144627D01*
X0204955Y0146171D01*
X0202713Y0147100D01*
X0200287Y0147100D01*
X0198045Y0146171D01*
X0196329Y0144455D01*
X0195400Y0142213D01*
X0195400Y0139787D01*
X0196329Y0137545D01*
X0197873Y0136000D01*
X0196329Y0134455D01*
X0195400Y0132213D01*
X0195400Y0129787D01*
X0196329Y0127545D01*
X0197873Y0126000D01*
X0196329Y0124455D01*
X0195400Y0122213D01*
X0195400Y0119787D01*
X0196329Y0117545D01*
X0197873Y0116000D01*
X0196329Y0114455D01*
X0195400Y0112213D01*
X0195400Y0109787D01*
X0196329Y0107545D01*
X0197873Y0106000D01*
X0196329Y0104455D01*
X0195400Y0102213D01*
X0195400Y0099787D01*
X0196329Y0097545D01*
X0197873Y0096000D01*
X0196329Y0094455D01*
X0195400Y0092213D01*
X0195400Y0089787D01*
X0196329Y0087545D01*
X0197873Y0086000D01*
X0196329Y0084455D01*
X0195400Y0082213D01*
X0195400Y0079787D01*
X0196329Y0077545D01*
X0197873Y0076000D01*
X0196329Y0074455D01*
X0195400Y0072213D01*
X0195400Y0069787D01*
X0196329Y0067545D01*
X0198045Y0065829D01*
X0200287Y0064900D01*
X0202713Y0064900D01*
X0204955Y0065829D01*
X0206671Y0067545D01*
X0207600Y0069787D01*
X0207600Y0072213D01*
X0206671Y0074455D01*
X0205127Y0076000D01*
X0206671Y0077545D01*
X0207600Y0079787D01*
X0207600Y0082213D01*
X0206671Y0084455D01*
X0205127Y0086000D01*
X0206671Y0087545D01*
X0207600Y0089787D01*
X0207600Y0092213D01*
X0206671Y0094455D01*
X0205127Y0096000D01*
X0206671Y0097545D01*
X0207600Y0099787D01*
X0207600Y0102213D01*
X0206671Y0104455D01*
X0205127Y0106000D01*
X0206527Y0107400D01*
X0213973Y0107400D01*
X0215545Y0105829D01*
X0217787Y0104900D01*
X0220213Y0104900D01*
X0222455Y0105829D01*
X0224171Y0107545D01*
X0224188Y0107585D01*
X0224500Y0107156D01*
X0225156Y0106500D01*
X0225908Y0105954D01*
X0226735Y0105532D01*
X0227618Y0105245D01*
X0228536Y0105100D01*
X0229000Y0105100D01*
X0229464Y0105100D01*
X0230382Y0105245D01*
X0231265Y0105532D01*
X0232092Y0105954D01*
X0232844Y0106500D01*
X0232900Y0106556D01*
X0232900Y0075284D01*
X0233448Y0073961D01*
X0240400Y0067009D01*
X0240400Y0064787D01*
X0241329Y0062545D01*
X0243045Y0060829D01*
X0245287Y0059900D01*
X0247713Y0059900D01*
X0249955Y0060829D01*
X0251671Y0062545D01*
X0251688Y0062585D01*
X0252000Y0062156D01*
X0252656Y0061500D01*
X0253408Y0060954D01*
X0254235Y0060532D01*
X0255118Y0060245D01*
X0256036Y0060100D01*
X0256500Y0060100D01*
X0253395Y0060963D02*
X0250089Y0060963D01*
X0256500Y0063361D02*
X0256500Y0063361D01*
X0261777Y0063361D02*
X0353790Y0063361D01*
X0351519Y0065760D02*
X0262400Y0065760D01*
X0262002Y0068158D02*
X0349249Y0068158D01*
X0346943Y0070557D02*
X0260266Y0070557D01*
X0244636Y0072955D02*
X0344545Y0072955D01*
X0342146Y0075354D02*
X0242237Y0075354D01*
X0240100Y0077752D02*
X0339748Y0077752D01*
X0339000Y0080151D02*
X0240100Y0080151D01*
X0240100Y0082549D02*
X0338495Y0082549D01*
X0338300Y0084948D02*
X0240100Y0084948D01*
X0240100Y0087346D02*
X0338300Y0087346D01*
X0338300Y0089745D02*
X0240100Y0089745D01*
X0240100Y0092143D02*
X0241730Y0092143D01*
X0240501Y0094542D02*
X0240100Y0094542D01*
X0240100Y0096940D02*
X0240400Y0096940D01*
X0240100Y0099339D02*
X0241280Y0099339D01*
X0240100Y0101737D02*
X0242900Y0101737D01*
X0242900Y0104136D02*
X0240100Y0104136D01*
X0240100Y0106534D02*
X0242900Y0106534D01*
X0242900Y0108933D02*
X0240100Y0108933D01*
X0240100Y0111332D02*
X0242900Y0111332D01*
X0242900Y0113730D02*
X0240100Y0113730D01*
X0240100Y0116129D02*
X0241280Y0116129D01*
X0246500Y0116000D02*
X0246500Y0096000D01*
X0251270Y0092143D02*
X0252013Y0092143D01*
X0256500Y0092143D02*
X0256500Y0092143D01*
X0256500Y0090100D02*
X0256500Y0096000D01*
X0256500Y0096000D01*
X0256500Y0090100D01*
X0256500Y0094542D02*
X0256500Y0094542D01*
X0256500Y0096940D02*
X0256500Y0096940D01*
X0256500Y0099339D02*
X0256500Y0099339D01*
X0256500Y0101737D02*
X0256500Y0101737D01*
X0255065Y0101737D02*
X0250100Y0101737D01*
X0250100Y0104136D02*
X0338300Y0104136D01*
X0338300Y0106534D02*
X0250100Y0106534D01*
X0250100Y0108933D02*
X0338300Y0108933D01*
X0338300Y0111332D02*
X0250100Y0111332D01*
X0250100Y0113730D02*
X0338300Y0113730D01*
X0338300Y0116129D02*
X0250100Y0116129D01*
X0249064Y0118527D02*
X0338300Y0118527D01*
X0338300Y0120926D02*
X0259537Y0120926D01*
X0256500Y0120926D02*
X0256500Y0120926D01*
X0256500Y0120100D02*
X0256500Y0126000D01*
X0256500Y0126000D01*
X0256500Y0120100D01*
X0253463Y0120926D02*
X0250052Y0120926D01*
X0246500Y0116000D02*
X0221500Y0141000D01*
X0226216Y0144911D02*
X0237498Y0144911D01*
X0235100Y0147309D02*
X0077600Y0147309D01*
X0077600Y0149708D02*
X0232701Y0149708D01*
X0230303Y0152106D02*
X0226233Y0152106D01*
X0226527Y0152400D02*
X0230009Y0152400D01*
X0242900Y0139509D01*
X0242295Y0140114D02*
X0227600Y0140114D01*
X0227476Y0142512D02*
X0239897Y0142512D01*
X0246500Y0141000D02*
X0246500Y0126000D01*
X0250607Y0130520D02*
X0252683Y0130520D01*
X0250100Y0132918D02*
X0338300Y0132918D01*
X0338300Y0130520D02*
X0260317Y0130520D01*
X0262014Y0128121D02*
X0338300Y0128121D01*
X0338300Y0125723D02*
X0262400Y0125723D01*
X0261758Y0123324D02*
X0338300Y0123324D01*
X0338300Y0135317D02*
X0250100Y0135317D01*
X0250100Y0137715D02*
X0338300Y0137715D01*
X0338300Y0140114D02*
X0250100Y0140114D01*
X0249770Y0142512D02*
X0338300Y0142512D01*
X0338300Y0144911D02*
X0247680Y0144911D01*
X0245282Y0147309D02*
X0338300Y0147309D01*
X0338300Y0149708D02*
X0242883Y0149708D01*
X0241767Y0152106D02*
X0240485Y0152106D01*
X0240517Y0154505D02*
X0238086Y0154505D01*
X0240400Y0156903D02*
X0235688Y0156903D01*
X0238107Y0159302D02*
X0232936Y0159302D01*
X0231500Y0156000D02*
X0246500Y0141000D01*
X0242900Y0135317D02*
X0232275Y0135317D01*
X0234673Y0132918D02*
X0242900Y0132918D01*
X0242393Y0130520D02*
X0237072Y0130520D01*
X0239470Y0128121D02*
X0240776Y0128121D01*
X0230785Y0116624D02*
X0230382Y0116755D01*
X0229464Y0116900D01*
X0229000Y0116900D01*
X0229000Y0111000D01*
X0229000Y0111000D01*
X0229000Y0105100D01*
X0229000Y0111000D01*
X0229000Y0111000D01*
X0229000Y0116900D01*
X0228536Y0116900D01*
X0227618Y0116755D01*
X0226735Y0116468D01*
X0225908Y0116046D01*
X0225156Y0115500D01*
X0224500Y0114844D01*
X0224188Y0114415D01*
X0224171Y0114455D01*
X0223259Y0115368D01*
X0223765Y0115532D01*
X0224592Y0115954D01*
X0225344Y0116500D01*
X0226000Y0117156D01*
X0226546Y0117908D01*
X0226968Y0118735D01*
X0227255Y0119618D01*
X0227328Y0120081D01*
X0230785Y0116624D01*
X0229000Y0116129D02*
X0229000Y0116129D01*
X0229000Y0113730D02*
X0229000Y0113730D01*
X0229000Y0111332D02*
X0229000Y0111332D01*
X0229000Y0108933D02*
X0229000Y0108933D01*
X0229000Y0106534D02*
X0229000Y0106534D01*
X0232878Y0106534D02*
X0232900Y0106534D01*
X0232900Y0104136D02*
X0206804Y0104136D01*
X0207600Y0101737D02*
X0232900Y0101737D01*
X0232900Y0099339D02*
X0207415Y0099339D01*
X0206067Y0096940D02*
X0232900Y0096940D01*
X0232900Y0094542D02*
X0206585Y0094542D01*
X0207600Y0092143D02*
X0232900Y0092143D01*
X0232900Y0089745D02*
X0207583Y0089745D01*
X0206473Y0087346D02*
X0232900Y0087346D01*
X0232900Y0084948D02*
X0206179Y0084948D01*
X0207461Y0082549D02*
X0232900Y0082549D01*
X0232900Y0080151D02*
X0207600Y0080151D01*
X0206757Y0077752D02*
X0232900Y0077752D01*
X0232900Y0075354D02*
X0205773Y0075354D01*
X0207293Y0072955D02*
X0234453Y0072955D01*
X0236852Y0070557D02*
X0207600Y0070557D01*
X0206926Y0068158D02*
X0239251Y0068158D01*
X0240400Y0065760D02*
X0204789Y0065760D01*
X0198211Y0065760D02*
X0186400Y0065760D01*
X0186400Y0063361D02*
X0240990Y0063361D01*
X0242911Y0060963D02*
X0186400Y0060963D01*
X0186322Y0068158D02*
X0196074Y0068158D01*
X0195400Y0070557D02*
X0185328Y0070557D01*
X0183545Y0072955D02*
X0195707Y0072955D01*
X0197227Y0075354D02*
X0179788Y0075354D01*
X0177872Y0079100D02*
X0175127Y0079100D01*
X0172591Y0080150D01*
X0170650Y0082091D01*
X0169600Y0084627D01*
X0169600Y0087372D01*
X0170650Y0089909D01*
X0172591Y0091850D01*
X0175127Y0092900D01*
X0177872Y0092900D01*
X0180409Y0091850D01*
X0182350Y0089909D01*
X0183400Y0087372D01*
X0183400Y0084627D01*
X0182350Y0082091D01*
X0180409Y0080150D01*
X0177872Y0079100D01*
X0180409Y0080151D02*
X0195400Y0080151D01*
X0195539Y0082549D02*
X0182539Y0082549D01*
X0183400Y0084948D02*
X0196821Y0084948D01*
X0196527Y0087346D02*
X0183400Y0087346D01*
X0182417Y0089745D02*
X0195417Y0089745D01*
X0195400Y0092143D02*
X0179699Y0092143D01*
X0173301Y0092143D02*
X0134699Y0092143D01*
X0135409Y0091850D02*
X0132872Y0092900D01*
X0130127Y0092900D01*
X0127591Y0091850D01*
X0125650Y0089909D01*
X0124600Y0087372D01*
X0124600Y0084627D01*
X0125650Y0082091D01*
X0127591Y0080150D01*
X0130127Y0079100D01*
X0132872Y0079100D01*
X0135409Y0080150D01*
X0137350Y0082091D01*
X0138400Y0084627D01*
X0138400Y0087372D01*
X0137350Y0089909D01*
X0135409Y0091850D01*
X0137417Y0089745D02*
X0170583Y0089745D01*
X0169600Y0087346D02*
X0138400Y0087346D01*
X0138400Y0084948D02*
X0169600Y0084948D01*
X0170461Y0082549D02*
X0148719Y0082549D01*
X0147872Y0082900D02*
X0145127Y0082900D01*
X0142591Y0081850D01*
X0140650Y0079909D01*
X0139600Y0077372D01*
X0139600Y0074627D01*
X0140650Y0072091D01*
X0142591Y0070150D01*
X0145127Y0069100D01*
X0147872Y0069100D01*
X0150409Y0070150D01*
X0152350Y0072091D01*
X0153400Y0074627D01*
X0153400Y0077372D01*
X0152350Y0079909D01*
X0150409Y0081850D01*
X0147872Y0082900D01*
X0144281Y0082549D02*
X0137539Y0082549D01*
X0135409Y0080151D02*
X0140893Y0080151D01*
X0139757Y0077752D02*
X0111400Y0077752D01*
X0111400Y0075354D02*
X0128212Y0075354D01*
X0129531Y0075900D02*
X0125892Y0074393D01*
X0098107Y0046608D01*
X0096600Y0042969D01*
X0096600Y0039031D01*
X0096600Y0034031D01*
X0098107Y0030392D01*
X0100892Y0027607D01*
X0104531Y0026100D01*
X0108469Y0026100D01*
X0112108Y0027607D01*
X0114893Y0030392D01*
X0116400Y0034031D01*
X0116400Y0036899D01*
X0139893Y0060392D01*
X0141400Y0064031D01*
X0141400Y0067969D01*
X0139893Y0071608D01*
X0137108Y0074393D01*
X0133469Y0075900D01*
X0129531Y0075900D01*
X0127591Y0080151D02*
X0110496Y0080151D01*
X0108951Y0082549D02*
X0125461Y0082549D01*
X0124600Y0084948D02*
X0105768Y0084948D01*
X0110955Y0072955D02*
X0124455Y0072955D01*
X0122056Y0070557D02*
X0109961Y0070557D01*
X0107659Y0068158D02*
X0119658Y0068158D01*
X0117259Y0065760D02*
X0091243Y0065760D01*
X0091243Y0063361D02*
X0114861Y0063361D01*
X0112462Y0060963D02*
X0091243Y0060963D01*
X0091243Y0058564D02*
X0110064Y0058564D01*
X0107665Y0056166D02*
X0091243Y0056166D01*
X0091243Y0053767D02*
X0105267Y0053767D01*
X0102868Y0051369D02*
X0091110Y0051369D01*
X0091085Y0048970D02*
X0100470Y0048970D01*
X0098092Y0046572D02*
X0091085Y0046572D01*
X0091085Y0044173D02*
X0097099Y0044173D01*
X0096600Y0041775D02*
X0091085Y0041775D01*
X0091085Y0039376D02*
X0096600Y0039376D01*
X0096600Y0036978D02*
X0091085Y0036978D01*
X0091085Y0034579D02*
X0096600Y0034579D01*
X0097366Y0032181D02*
X0090319Y0032181D01*
X0088968Y0029782D02*
X0098717Y0029782D01*
X0101432Y0027384D02*
X0086253Y0027384D01*
X0076117Y0027384D02*
X0004700Y0027384D01*
X0004700Y0029782D02*
X0011583Y0029782D01*
X0012023Y0029600D02*
X0020977Y0029600D01*
X0021859Y0029965D01*
X0022535Y0030641D01*
X0022900Y0031523D01*
X0022900Y0037309D01*
X0037052Y0051461D01*
X0037600Y0052784D01*
X0037600Y0127644D01*
X0037816Y0127859D01*
X0038181Y0128741D01*
X0038181Y0133258D01*
X0037816Y0134141D01*
X0037141Y0134816D01*
X0036258Y0135181D01*
X0031741Y0135181D01*
X0030859Y0134816D01*
X0030184Y0134141D01*
X0029819Y0133258D01*
X0029819Y0128741D01*
X0030184Y0127859D01*
X0030400Y0127644D01*
X0030400Y0054991D01*
X0017809Y0042400D01*
X0012023Y0042400D01*
X0011141Y0042035D01*
X0010465Y0041359D01*
X0010100Y0040477D01*
X0010100Y0031523D01*
X0010465Y0030641D01*
X0011141Y0029965D01*
X0012023Y0029600D01*
X0010100Y0032181D02*
X0004700Y0032181D01*
X0004700Y0034579D02*
X0010100Y0034579D01*
X0010100Y0036978D02*
X0004700Y0036978D01*
X0004700Y0039376D02*
X0010100Y0039376D01*
X0010881Y0041775D02*
X0004700Y0041775D01*
X0004700Y0044173D02*
X0019582Y0044173D01*
X0021981Y0046572D02*
X0004700Y0046572D01*
X0004700Y0048970D02*
X0024379Y0048970D01*
X0026778Y0051369D02*
X0004700Y0051369D01*
X0004700Y0053767D02*
X0029176Y0053767D01*
X0030400Y0056166D02*
X0004700Y0056166D01*
X0004700Y0058564D02*
X0030400Y0058564D01*
X0030400Y0060963D02*
X0004700Y0060963D01*
X0004700Y0063361D02*
X0030400Y0063361D01*
X0030400Y0065760D02*
X0014789Y0065760D01*
X0014955Y0065829D02*
X0016671Y0067545D01*
X0017600Y0069787D01*
X0017600Y0072213D01*
X0016671Y0074455D01*
X0015127Y0076000D01*
X0016671Y0077545D01*
X0017600Y0079787D01*
X0017600Y0082213D01*
X0016671Y0084455D01*
X0015127Y0086000D01*
X0016671Y0087545D01*
X0017600Y0089787D01*
X0017600Y0092213D01*
X0016671Y0094455D01*
X0015127Y0096000D01*
X0016671Y0097545D01*
X0017600Y0099787D01*
X0017600Y0102213D01*
X0016671Y0104455D01*
X0015127Y0106000D01*
X0016671Y0107545D01*
X0017600Y0109787D01*
X0017600Y0112213D01*
X0016671Y0114455D01*
X0015127Y0116000D01*
X0016671Y0117545D01*
X0017600Y0119787D01*
X0017600Y0122213D01*
X0016671Y0124455D01*
X0014955Y0126171D01*
X0012713Y0127100D01*
X0010287Y0127100D01*
X0008045Y0126171D01*
X0006329Y0124455D01*
X0005400Y0122213D01*
X0005400Y0119787D01*
X0006329Y0117545D01*
X0007873Y0116000D01*
X0006329Y0114455D01*
X0005400Y0112213D01*
X0005400Y0109787D01*
X0006329Y0107545D01*
X0007873Y0106000D01*
X0006329Y0104455D01*
X0005400Y0102213D01*
X0005400Y0099787D01*
X0006329Y0097545D01*
X0007873Y0096000D01*
X0006329Y0094455D01*
X0005400Y0092213D01*
X0005400Y0089787D01*
X0006329Y0087545D01*
X0007873Y0086000D01*
X0006329Y0084455D01*
X0005400Y0082213D01*
X0005400Y0079787D01*
X0006329Y0077545D01*
X0007873Y0076000D01*
X0006329Y0074455D01*
X0005400Y0072213D01*
X0005400Y0069787D01*
X0006329Y0067545D01*
X0008045Y0065829D01*
X0010287Y0064900D01*
X0012713Y0064900D01*
X0014955Y0065829D01*
X0016926Y0068158D02*
X0030400Y0068158D01*
X0030400Y0070557D02*
X0017600Y0070557D01*
X0017293Y0072955D02*
X0030400Y0072955D01*
X0030400Y0075354D02*
X0015773Y0075354D01*
X0016757Y0077752D02*
X0030400Y0077752D01*
X0030400Y0080151D02*
X0017600Y0080151D01*
X0017461Y0082549D02*
X0030400Y0082549D01*
X0030400Y0084948D02*
X0016179Y0084948D01*
X0016473Y0087346D02*
X0030400Y0087346D01*
X0030400Y0089745D02*
X0017583Y0089745D01*
X0017600Y0092143D02*
X0030400Y0092143D01*
X0030400Y0094542D02*
X0016585Y0094542D01*
X0016067Y0096940D02*
X0021448Y0096940D01*
X0021741Y0096819D02*
X0026258Y0096819D01*
X0027141Y0097184D01*
X0027816Y0097859D01*
X0028181Y0098741D01*
X0028181Y0103258D01*
X0027816Y0104141D01*
X0027600Y0104356D01*
X0027600Y0127644D01*
X0027816Y0127859D01*
X0028181Y0128741D01*
X0028181Y0133258D01*
X0027816Y0134141D01*
X0027141Y0134816D01*
X0026258Y0135181D01*
X0021741Y0135181D01*
X0020859Y0134816D01*
X0020184Y0134141D01*
X0019819Y0133258D01*
X0019819Y0128741D01*
X0020184Y0127859D01*
X0020400Y0127644D01*
X0020400Y0104356D01*
X0020184Y0104141D01*
X0019819Y0103258D01*
X0019819Y0098741D01*
X0020184Y0097859D01*
X0020859Y0097184D01*
X0021741Y0096819D01*
X0019819Y0099339D02*
X0017415Y0099339D01*
X0017600Y0101737D02*
X0019819Y0101737D01*
X0020182Y0104136D02*
X0016804Y0104136D01*
X0015661Y0106534D02*
X0020400Y0106534D01*
X0020400Y0108933D02*
X0017246Y0108933D01*
X0017600Y0111332D02*
X0020400Y0111332D01*
X0020400Y0113730D02*
X0016972Y0113730D01*
X0015255Y0116129D02*
X0020400Y0116129D01*
X0020400Y0118527D02*
X0017078Y0118527D01*
X0017600Y0120926D02*
X0020400Y0120926D01*
X0020400Y0123324D02*
X0017140Y0123324D01*
X0015404Y0125723D02*
X0020400Y0125723D01*
X0020076Y0128121D02*
X0004700Y0128121D01*
X0004700Y0125723D02*
X0007596Y0125723D01*
X0005860Y0123324D02*
X0004700Y0123324D01*
X0004700Y0120926D02*
X0005400Y0120926D01*
X0005922Y0118527D02*
X0004700Y0118527D01*
X0004700Y0116129D02*
X0007745Y0116129D01*
X0006028Y0113730D02*
X0004700Y0113730D01*
X0004700Y0111332D02*
X0005400Y0111332D01*
X0005754Y0108933D02*
X0004700Y0108933D01*
X0004700Y0106534D02*
X0007339Y0106534D01*
X0006196Y0104136D02*
X0004700Y0104136D01*
X0004700Y0101737D02*
X0005400Y0101737D01*
X0005585Y0099339D02*
X0004700Y0099339D01*
X0004700Y0096940D02*
X0006933Y0096940D01*
X0006415Y0094542D02*
X0004700Y0094542D01*
X0004700Y0092143D02*
X0005400Y0092143D01*
X0005417Y0089745D02*
X0004700Y0089745D01*
X0004700Y0087346D02*
X0006527Y0087346D01*
X0006821Y0084948D02*
X0004700Y0084948D01*
X0004700Y0082549D02*
X0005539Y0082549D01*
X0005400Y0080151D02*
X0004700Y0080151D01*
X0004700Y0077752D02*
X0006243Y0077752D01*
X0007227Y0075354D02*
X0004700Y0075354D01*
X0004700Y0072955D02*
X0005707Y0072955D01*
X0005400Y0070557D02*
X0004700Y0070557D01*
X0004700Y0068158D02*
X0006074Y0068158D01*
X0004700Y0065760D02*
X0008211Y0065760D01*
X0029764Y0044173D02*
X0071285Y0044173D01*
X0071285Y0041775D02*
X0066826Y0041775D01*
X0066851Y0041760D02*
X0066349Y0042050D01*
X0065790Y0042200D01*
X0061580Y0042200D01*
X0061580Y0036080D01*
X0067700Y0036080D01*
X0067700Y0040290D01*
X0067550Y0040849D01*
X0067260Y0041351D01*
X0066851Y0041760D01*
X0067700Y0039376D02*
X0071285Y0039376D01*
X0071285Y0036978D02*
X0067700Y0036978D01*
X0067700Y0035920D02*
X0061580Y0035920D01*
X0061580Y0036080D01*
X0061420Y0036080D01*
X0061420Y0042200D01*
X0057210Y0042200D01*
X0056651Y0042050D01*
X0056149Y0041760D01*
X0055740Y0041351D01*
X0055450Y0040849D01*
X0055300Y0040290D01*
X0055300Y0036080D01*
X0061420Y0036080D01*
X0061420Y0035920D01*
X0061580Y0035920D01*
X0061580Y0029800D01*
X0065790Y0029800D01*
X0066349Y0029950D01*
X0066851Y0030240D01*
X0067260Y0030649D01*
X0067550Y0031151D01*
X0067700Y0031710D01*
X0067700Y0035920D01*
X0067700Y0034579D02*
X0071285Y0034579D01*
X0072051Y0032181D02*
X0067700Y0032181D01*
X0073402Y0029782D02*
X0037898Y0029782D01*
X0037458Y0029600D02*
X0039810Y0030574D01*
X0041611Y0032375D01*
X0042585Y0034727D01*
X0042585Y0037273D01*
X0041611Y0039625D01*
X0039810Y0041426D01*
X0037458Y0042400D01*
X0034912Y0042400D01*
X0032560Y0041426D01*
X0030759Y0039625D01*
X0029785Y0037273D01*
X0029785Y0034727D01*
X0030759Y0032375D01*
X0032560Y0030574D01*
X0034912Y0029600D01*
X0037458Y0029600D01*
X0034472Y0029782D02*
X0021417Y0029782D01*
X0022900Y0032181D02*
X0030953Y0032181D01*
X0029846Y0034579D02*
X0022900Y0034579D01*
X0022900Y0036978D02*
X0029785Y0036978D01*
X0030656Y0039376D02*
X0024967Y0039376D01*
X0027366Y0041775D02*
X0033402Y0041775D01*
X0038968Y0041775D02*
X0056174Y0041775D01*
X0055300Y0039376D02*
X0041714Y0039376D01*
X0042585Y0036978D02*
X0055300Y0036978D01*
X0055300Y0035920D02*
X0055300Y0031710D01*
X0055450Y0031151D01*
X0055740Y0030649D01*
X0056149Y0030240D01*
X0056651Y0029950D01*
X0057210Y0029800D01*
X0061420Y0029800D01*
X0061420Y0035920D01*
X0055300Y0035920D01*
X0055300Y0034579D02*
X0042524Y0034579D01*
X0041417Y0032181D02*
X0055300Y0032181D01*
X0061420Y0032181D02*
X0061580Y0032181D01*
X0061580Y0034579D02*
X0061420Y0034579D01*
X0061420Y0036978D02*
X0061580Y0036978D01*
X0061580Y0039376D02*
X0061420Y0039376D01*
X0061420Y0041775D02*
X0061580Y0041775D01*
X0071285Y0046572D02*
X0032163Y0046572D01*
X0034561Y0048970D02*
X0071285Y0048970D01*
X0071285Y0051369D02*
X0036960Y0051369D01*
X0037600Y0053767D02*
X0071285Y0053767D01*
X0071285Y0056166D02*
X0037600Y0056166D01*
X0037600Y0058564D02*
X0071443Y0058564D01*
X0071443Y0060963D02*
X0037600Y0060963D01*
X0037600Y0063361D02*
X0071443Y0063361D01*
X0071443Y0065760D02*
X0037600Y0065760D01*
X0037600Y0068158D02*
X0071443Y0068158D01*
X0071443Y0070557D02*
X0064191Y0070557D01*
X0063961Y0070440D02*
X0064802Y0070868D01*
X0065566Y0071423D01*
X0066234Y0072091D01*
X0066789Y0072855D01*
X0067218Y0073697D01*
X0067510Y0074595D01*
X0067657Y0075528D01*
X0067657Y0076000D01*
X0061658Y0076000D01*
X0067657Y0076000D01*
X0067657Y0076472D01*
X0067510Y0077405D01*
X0067218Y0078303D01*
X0066789Y0079145D01*
X0066234Y0079909D01*
X0065566Y0080577D01*
X0064802Y0081132D01*
X0063961Y0081560D01*
X0063062Y0081852D01*
X0062130Y0082000D01*
X0061658Y0082000D01*
X0061658Y0076000D01*
X0061658Y0076000D01*
X0061658Y0070000D01*
X0062130Y0070000D01*
X0063062Y0070148D01*
X0063961Y0070440D01*
X0061658Y0070557D02*
X0061657Y0070557D01*
X0061657Y0070000D02*
X0061657Y0076000D01*
X0055657Y0076000D01*
X0055657Y0075528D01*
X0055805Y0074595D01*
X0056097Y0073697D01*
X0056526Y0072855D01*
X0057081Y0072091D01*
X0057749Y0071423D01*
X0058513Y0070868D01*
X0059354Y0070440D01*
X0060252Y0070148D01*
X0061185Y0070000D01*
X0061657Y0070000D01*
X0059124Y0070557D02*
X0037600Y0070557D01*
X0037600Y0072955D02*
X0056475Y0072955D01*
X0055685Y0075354D02*
X0037600Y0075354D01*
X0037600Y0077752D02*
X0055918Y0077752D01*
X0055805Y0077405D02*
X0055657Y0076472D01*
X0055657Y0076000D01*
X0061657Y0076000D01*
X0061657Y0076000D01*
X0061658Y0076000D01*
X0061657Y0076000D01*
X0061657Y0082000D01*
X0061185Y0082000D01*
X0060252Y0081852D01*
X0059354Y0081560D01*
X0058513Y0081132D01*
X0057749Y0080577D01*
X0057081Y0079909D01*
X0056526Y0079145D01*
X0056097Y0078303D01*
X0055805Y0077405D01*
X0057323Y0080151D02*
X0037600Y0080151D01*
X0037600Y0082549D02*
X0073891Y0082549D01*
X0074491Y0084948D02*
X0037600Y0084948D01*
X0037600Y0087346D02*
X0072093Y0087346D01*
X0069694Y0089745D02*
X0037600Y0089745D01*
X0037600Y0092143D02*
X0067296Y0092143D01*
X0064897Y0094542D02*
X0037600Y0094542D01*
X0037600Y0096940D02*
X0062499Y0096940D01*
X0060100Y0099339D02*
X0037600Y0099339D01*
X0037600Y0101737D02*
X0057701Y0101737D01*
X0056102Y0104136D02*
X0037600Y0104136D01*
X0037600Y0106534D02*
X0055800Y0106534D01*
X0055561Y0108933D02*
X0037600Y0108933D01*
X0037600Y0111332D02*
X0055400Y0111332D01*
X0055400Y0113730D02*
X0037600Y0113730D01*
X0037600Y0116129D02*
X0055400Y0116129D01*
X0055752Y0118527D02*
X0037600Y0118527D01*
X0037600Y0120926D02*
X0056190Y0120926D01*
X0055600Y0123324D02*
X0037600Y0123324D01*
X0037600Y0125723D02*
X0056019Y0125723D01*
X0057823Y0128121D02*
X0037924Y0128121D01*
X0038181Y0130520D02*
X0051889Y0130520D01*
X0049491Y0132918D02*
X0038181Y0132918D01*
X0034000Y0131000D02*
X0034000Y0053500D01*
X0016500Y0036000D01*
X0061657Y0072955D02*
X0061658Y0072955D01*
X0061657Y0075354D02*
X0061658Y0075354D01*
X0061657Y0077752D02*
X0061658Y0077752D01*
X0061657Y0080151D02*
X0061658Y0080151D01*
X0065992Y0080151D02*
X0072346Y0080151D01*
X0071443Y0077752D02*
X0067397Y0077752D01*
X0067630Y0075354D02*
X0071443Y0075354D01*
X0071443Y0072955D02*
X0066840Y0072955D01*
X0087112Y0087346D02*
X0124600Y0087346D01*
X0125583Y0089745D02*
X0085816Y0089745D01*
X0083418Y0092143D02*
X0128301Y0092143D01*
X0134788Y0075354D02*
X0139600Y0075354D01*
X0140293Y0072955D02*
X0138545Y0072955D01*
X0140328Y0070557D02*
X0142185Y0070557D01*
X0141322Y0068158D02*
X0166678Y0068158D01*
X0166600Y0065760D02*
X0141400Y0065760D01*
X0141123Y0063361D02*
X0166600Y0063361D01*
X0166600Y0060963D02*
X0140129Y0060963D01*
X0138065Y0058564D02*
X0166600Y0058564D01*
X0166600Y0056166D02*
X0135666Y0056166D01*
X0133268Y0053767D02*
X0166600Y0053767D01*
X0166600Y0051369D02*
X0130869Y0051369D01*
X0128471Y0048970D02*
X0166600Y0048970D01*
X0166600Y0046572D02*
X0126072Y0046572D01*
X0123674Y0044173D02*
X0165358Y0044173D01*
X0162959Y0041775D02*
X0157119Y0041775D01*
X0156859Y0042035D02*
X0157535Y0041359D01*
X0157900Y0040477D01*
X0157900Y0031523D01*
X0157535Y0030641D01*
X0156859Y0029965D01*
X0155977Y0029600D01*
X0147023Y0029600D01*
X0146141Y0029965D01*
X0145465Y0030641D01*
X0145100Y0031523D01*
X0145100Y0040477D01*
X0145465Y0041359D01*
X0146141Y0042035D01*
X0147023Y0042400D01*
X0155977Y0042400D01*
X0156859Y0042035D01*
X0157900Y0039376D02*
X0161868Y0039376D01*
X0161285Y0036978D02*
X0157900Y0036978D01*
X0157900Y0034579D02*
X0161285Y0034579D01*
X0162051Y0032181D02*
X0157900Y0032181D01*
X0156417Y0029782D02*
X0163402Y0029782D01*
X0166117Y0027384D02*
X0111568Y0027384D01*
X0114283Y0029782D02*
X0146583Y0029782D01*
X0145100Y0032181D02*
X0131074Y0032181D01*
X0130914Y0031961D02*
X0131488Y0032750D01*
X0131931Y0033620D01*
X0132232Y0034548D01*
X0132385Y0035512D01*
X0132385Y0035920D01*
X0126265Y0035920D01*
X0126265Y0036080D01*
X0132385Y0036080D01*
X0132385Y0036488D01*
X0132232Y0037452D01*
X0131931Y0038380D01*
X0131488Y0039250D01*
X0130914Y0040039D01*
X0130224Y0040729D01*
X0129435Y0041303D01*
X0128565Y0041746D01*
X0127637Y0042047D01*
X0126673Y0042200D01*
X0126265Y0042200D01*
X0126265Y0036080D01*
X0126105Y0036080D01*
X0126105Y0035920D01*
X0126265Y0035920D01*
X0126265Y0029800D01*
X0126673Y0029800D01*
X0127637Y0029953D01*
X0128565Y0030254D01*
X0129435Y0030697D01*
X0130224Y0031271D01*
X0130914Y0031961D01*
X0132237Y0034579D02*
X0145100Y0034579D01*
X0145100Y0036978D02*
X0132307Y0036978D01*
X0131396Y0039376D02*
X0145100Y0039376D01*
X0145881Y0041775D02*
X0128476Y0041775D01*
X0126265Y0041775D02*
X0126105Y0041775D01*
X0126105Y0042200D02*
X0126105Y0036080D01*
X0119985Y0036080D01*
X0119985Y0036488D01*
X0120138Y0037452D01*
X0120439Y0038380D01*
X0120882Y0039250D01*
X0121456Y0040039D01*
X0122146Y0040729D01*
X0122936Y0041303D01*
X0123805Y0041746D01*
X0124733Y0042047D01*
X0125697Y0042200D01*
X0126105Y0042200D01*
X0123894Y0041775D02*
X0121275Y0041775D01*
X0120974Y0039376D02*
X0118877Y0039376D01*
X0120063Y0036978D02*
X0116478Y0036978D01*
X0116400Y0034579D02*
X0120133Y0034579D01*
X0120138Y0034548D02*
X0120439Y0033620D01*
X0120882Y0032750D01*
X0121456Y0031961D01*
X0122146Y0031271D01*
X0122936Y0030697D01*
X0123805Y0030254D01*
X0124733Y0029953D01*
X0125697Y0029800D01*
X0126105Y0029800D01*
X0126105Y0035920D01*
X0119985Y0035920D01*
X0119985Y0035512D01*
X0120138Y0034548D01*
X0121296Y0032181D02*
X0115634Y0032181D01*
X0126105Y0032181D02*
X0126265Y0032181D01*
X0126265Y0034579D02*
X0126105Y0034579D01*
X0126105Y0036978D02*
X0126265Y0036978D01*
X0126265Y0039376D02*
X0126105Y0039376D01*
X0150815Y0070557D02*
X0167672Y0070557D01*
X0169455Y0072955D02*
X0152707Y0072955D01*
X0153400Y0075354D02*
X0173212Y0075354D01*
X0172591Y0080151D02*
X0152107Y0080151D01*
X0153243Y0077752D02*
X0196243Y0077752D01*
X0196415Y0094542D02*
X0081019Y0094542D01*
X0078621Y0096940D02*
X0196933Y0096940D01*
X0195585Y0099339D02*
X0076222Y0099339D01*
X0073824Y0101737D02*
X0195400Y0101737D01*
X0196196Y0104136D02*
X0071425Y0104136D01*
X0069027Y0106534D02*
X0075953Y0106534D01*
X0076222Y0106339D02*
X0076987Y0105949D01*
X0077803Y0105684D01*
X0078650Y0105550D01*
X0079079Y0105550D01*
X0079508Y0105550D01*
X0080355Y0105684D01*
X0081171Y0105949D01*
X0081935Y0106339D01*
X0082629Y0106843D01*
X0083236Y0107450D01*
X0083271Y0107498D01*
X0083271Y0107273D01*
X0083637Y0106391D01*
X0084312Y0105715D01*
X0085194Y0105350D01*
X0092649Y0105350D01*
X0093531Y0105715D01*
X0094206Y0106391D01*
X0094571Y0107273D01*
X0094571Y0114727D01*
X0094206Y0115609D01*
X0093531Y0116285D01*
X0092649Y0116650D01*
X0085194Y0116650D01*
X0084312Y0116285D01*
X0083637Y0115609D01*
X0083271Y0114727D01*
X0083271Y0114502D01*
X0083236Y0114550D01*
X0082629Y0115157D01*
X0081935Y0115661D01*
X0081171Y0116051D01*
X0080355Y0116316D01*
X0079508Y0116450D01*
X0079079Y0116450D01*
X0079079Y0111000D01*
X0079079Y0111000D01*
X0079079Y0105550D01*
X0079079Y0111000D01*
X0079079Y0111000D01*
X0079079Y0118579D01*
X0101500Y0141000D01*
X0116500Y0141000D01*
X0131500Y0156000D01*
X0136500Y0156000D01*
X0141500Y0151000D01*
X0151500Y0151000D01*
X0156500Y0146000D01*
X0166500Y0146000D01*
X0176500Y0156000D01*
X0186500Y0166000D01*
X0186500Y0191000D01*
X0195400Y0187213D02*
X0195400Y0184787D01*
X0196329Y0182545D01*
X0197873Y0181000D01*
X0196329Y0179455D01*
X0195400Y0177213D01*
X0195400Y0174787D01*
X0196329Y0172545D01*
X0197873Y0171000D01*
X0196329Y0169455D01*
X0195400Y0167213D01*
X0195400Y0164787D01*
X0196329Y0162545D01*
X0197873Y0161000D01*
X0196329Y0159455D01*
X0195400Y0157213D01*
X0195400Y0154787D01*
X0196329Y0152545D01*
X0198045Y0150829D01*
X0200287Y0149900D01*
X0202713Y0149900D01*
X0204955Y0150829D01*
X0206500Y0152373D01*
X0208045Y0150829D01*
X0210287Y0149900D01*
X0212713Y0149900D01*
X0214955Y0150829D01*
X0216500Y0152373D01*
X0218045Y0150829D01*
X0220287Y0149900D01*
X0222713Y0149900D01*
X0224955Y0150829D01*
X0226527Y0152400D01*
X0231500Y0156000D02*
X0221500Y0156000D01*
X0216767Y0152106D02*
X0216233Y0152106D01*
X0211500Y0156000D02*
X0201500Y0156000D01*
X0196767Y0152106D02*
X0180950Y0152106D01*
X0181000Y0152156D02*
X0181546Y0152908D01*
X0181968Y0153735D01*
X0182255Y0154618D01*
X0182400Y0155536D01*
X0182400Y0156000D01*
X0182400Y0156464D01*
X0182255Y0157382D01*
X0181968Y0158265D01*
X0181546Y0159092D01*
X0181000Y0159844D01*
X0180344Y0160500D01*
X0179592Y0161046D01*
X0178765Y0161468D01*
X0177882Y0161755D01*
X0177411Y0161829D01*
X0177600Y0162287D01*
X0177600Y0164713D01*
X0176671Y0166955D01*
X0174955Y0168671D01*
X0172713Y0169600D01*
X0170287Y0169600D01*
X0168045Y0168671D01*
X0166329Y0166955D01*
X0165400Y0164713D01*
X0165400Y0162287D01*
X0165477Y0162100D01*
X0165287Y0162100D01*
X0163045Y0161171D01*
X0162600Y0160727D01*
X0162600Y0162213D01*
X0161671Y0164455D01*
X0159955Y0166171D01*
X0157713Y0167100D01*
X0155287Y0167100D01*
X0153045Y0166171D01*
X0151500Y0164627D01*
X0149955Y0166171D01*
X0147713Y0167100D01*
X0145287Y0167100D01*
X0143045Y0166171D01*
X0141329Y0164455D01*
X0140400Y0162213D01*
X0140400Y0159787D01*
X0141329Y0157545D01*
X0143045Y0155829D01*
X0145287Y0154900D01*
X0147713Y0154900D01*
X0149955Y0155829D01*
X0151500Y0157373D01*
X0153045Y0155829D01*
X0155287Y0154900D01*
X0157713Y0154900D01*
X0159955Y0155829D01*
X0160400Y0156273D01*
X0160400Y0154787D01*
X0161329Y0152545D01*
X0163045Y0150829D01*
X0165287Y0149900D01*
X0167713Y0149900D01*
X0169955Y0150829D01*
X0171671Y0152545D01*
X0171688Y0152585D01*
X0172000Y0152156D01*
X0172656Y0151500D01*
X0173408Y0150954D01*
X0174235Y0150532D01*
X0175118Y0150245D01*
X0176036Y0150100D01*
X0176500Y0150100D01*
X0176964Y0150100D01*
X0177882Y0150245D01*
X0178765Y0150532D01*
X0179592Y0150954D01*
X0180344Y0151500D01*
X0181000Y0152156D01*
X0182218Y0154505D02*
X0195517Y0154505D01*
X0195400Y0156903D02*
X0182330Y0156903D01*
X0182400Y0156000D02*
X0176500Y0156000D01*
X0176500Y0156000D01*
X0182400Y0156000D01*
X0181394Y0159302D02*
X0196265Y0159302D01*
X0197173Y0161700D02*
X0178049Y0161700D01*
X0177600Y0164099D02*
X0195685Y0164099D01*
X0195400Y0166497D02*
X0176861Y0166497D01*
X0174413Y0168896D02*
X0196097Y0168896D01*
X0197579Y0171294D02*
X0100100Y0171294D01*
X0100100Y0168896D02*
X0123587Y0168896D01*
X0123045Y0168671D02*
X0121329Y0166955D01*
X0120400Y0164713D01*
X0120400Y0162287D01*
X0120477Y0162100D01*
X0120287Y0162100D01*
X0118045Y0161171D01*
X0116329Y0159455D01*
X0115400Y0157213D01*
X0115400Y0154787D01*
X0116329Y0152545D01*
X0118045Y0150829D01*
X0120287Y0149900D01*
X0122713Y0149900D01*
X0124955Y0150829D01*
X0126671Y0152545D01*
X0126688Y0152585D01*
X0127000Y0152156D01*
X0127656Y0151500D01*
X0128408Y0150954D01*
X0129235Y0150532D01*
X0130118Y0150245D01*
X0131036Y0150100D01*
X0131500Y0150100D01*
X0131964Y0150100D01*
X0132882Y0150245D01*
X0133765Y0150532D01*
X0134592Y0150954D01*
X0135344Y0151500D01*
X0136000Y0152156D01*
X0136546Y0152908D01*
X0136968Y0153735D01*
X0137255Y0154618D01*
X0137400Y0155536D01*
X0137400Y0156000D01*
X0137400Y0156464D01*
X0137255Y0157382D01*
X0136968Y0158265D01*
X0136546Y0159092D01*
X0136000Y0159844D01*
X0135344Y0160500D01*
X0134592Y0161046D01*
X0133765Y0161468D01*
X0132882Y0161755D01*
X0132411Y0161829D01*
X0132600Y0162287D01*
X0132600Y0164713D01*
X0131671Y0166955D01*
X0129955Y0168671D01*
X0127713Y0169600D01*
X0125287Y0169600D01*
X0123045Y0168671D01*
X0121139Y0166497D02*
X0109168Y0166497D01*
X0111819Y0164099D02*
X0120400Y0164099D01*
X0119322Y0161700D02*
X0112600Y0161700D01*
X0112399Y0159302D02*
X0116265Y0159302D01*
X0115400Y0156903D02*
X0111030Y0156903D01*
X0115517Y0154505D02*
X0077600Y0154505D01*
X0077600Y0156903D02*
X0091970Y0156903D01*
X0090601Y0159302D02*
X0077600Y0159302D01*
X0078327Y0161700D02*
X0090400Y0161700D01*
X0091181Y0164099D02*
X0082190Y0164099D01*
X0079000Y0166000D02*
X0074000Y0166000D01*
X0074000Y0146000D01*
X0061500Y0133500D01*
X0054000Y0133500D01*
X0031500Y0156000D01*
X0029000Y0156000D01*
X0014000Y0171000D01*
X0011500Y0171000D01*
X0016987Y0173693D02*
X0024860Y0173693D01*
X0025031Y0173281D02*
X0026381Y0171931D01*
X0028145Y0171200D01*
X0034855Y0171200D01*
X0036619Y0171931D01*
X0037088Y0172400D01*
X0037216Y0172400D01*
X0038539Y0172948D01*
X0055491Y0189900D01*
X0056642Y0189900D01*
X0056103Y0189509D01*
X0055591Y0188997D01*
X0055166Y0188411D01*
X0054837Y0187766D01*
X0054613Y0187077D01*
X0054500Y0186362D01*
X0054500Y0186000D01*
X0061500Y0186000D01*
X0068500Y0186000D01*
X0068500Y0186362D01*
X0068387Y0187077D01*
X0068163Y0187766D01*
X0067834Y0188411D01*
X0067409Y0188997D01*
X0066897Y0189509D01*
X0066358Y0189900D01*
X0070009Y0189900D01*
X0072198Y0187711D01*
X0073211Y0186698D01*
X0077900Y0182009D01*
X0077900Y0180727D01*
X0077455Y0181171D01*
X0075213Y0182100D01*
X0072787Y0182100D01*
X0070545Y0181171D01*
X0068973Y0179600D01*
X0067088Y0179600D01*
X0066619Y0180069D01*
X0064855Y0180800D01*
X0058145Y0180800D01*
X0056381Y0180069D01*
X0055031Y0178719D01*
X0054300Y0176955D01*
X0054300Y0175045D01*
X0055031Y0173281D01*
X0056381Y0171931D01*
X0058145Y0171200D01*
X0064855Y0171200D01*
X0066619Y0171931D01*
X0067088Y0172400D01*
X0068973Y0172400D01*
X0070373Y0171000D01*
X0068829Y0169455D01*
X0068246Y0168050D01*
X0067969Y0168719D01*
X0066619Y0170069D01*
X0064855Y0170800D01*
X0058145Y0170800D01*
X0056381Y0170069D01*
X0055031Y0168719D01*
X0054300Y0166955D01*
X0054300Y0165045D01*
X0055031Y0163281D01*
X0056381Y0161931D01*
X0058145Y0161200D01*
X0064855Y0161200D01*
X0066619Y0161931D01*
X0067969Y0163281D01*
X0068246Y0163950D01*
X0068829Y0162545D01*
X0070400Y0160973D01*
X0070400Y0147491D01*
X0062509Y0139600D01*
X0060287Y0139600D01*
X0058045Y0138671D01*
X0056473Y0137100D01*
X0055491Y0137100D01*
X0038362Y0154229D01*
X0038700Y0155045D01*
X0038700Y0156955D01*
X0037969Y0158719D01*
X0036619Y0160069D01*
X0034855Y0160800D01*
X0029291Y0160800D01*
X0028891Y0161200D01*
X0034855Y0161200D01*
X0036619Y0161931D01*
X0037969Y0163281D01*
X0038700Y0165045D01*
X0038700Y0166955D01*
X0037969Y0168719D01*
X0036619Y0170069D01*
X0034855Y0170800D01*
X0028145Y0170800D01*
X0026381Y0170069D01*
X0025031Y0168719D01*
X0024300Y0166955D01*
X0024300Y0165791D01*
X0017404Y0172688D01*
X0016671Y0174455D01*
X0015127Y0176000D01*
X0016671Y0177545D01*
X0017600Y0179787D01*
X0017600Y0182213D01*
X0016671Y0184455D01*
X0015127Y0186000D01*
X0016671Y0187545D01*
X0017600Y0189787D01*
X0017600Y0192213D01*
X0016671Y0194455D01*
X0015127Y0196000D01*
X0016671Y0197545D01*
X0017600Y0199787D01*
X0017600Y0202213D01*
X0016671Y0204455D01*
X0015127Y0206000D01*
X0016671Y0207545D01*
X0017600Y0209787D01*
X0017600Y0212213D01*
X0017067Y0213500D01*
X0093909Y0213500D01*
X0075250Y0194841D01*
X0073539Y0196552D01*
X0072216Y0197100D01*
X0053284Y0197100D01*
X0051961Y0196552D01*
X0050948Y0195539D01*
X0035812Y0180403D01*
X0034855Y0180800D01*
X0028145Y0180800D01*
X0026381Y0180069D01*
X0025031Y0178719D01*
X0024300Y0176955D01*
X0024300Y0175045D01*
X0025031Y0173281D01*
X0024300Y0176091D02*
X0015218Y0176091D01*
X0017063Y0178490D02*
X0024936Y0178490D01*
X0026381Y0181931D02*
X0025031Y0183281D01*
X0024300Y0185045D01*
X0024300Y0186955D01*
X0025031Y0188719D01*
X0026381Y0190069D01*
X0028145Y0190800D01*
X0034855Y0190800D01*
X0036619Y0190069D01*
X0037969Y0188719D01*
X0038700Y0186955D01*
X0038700Y0185045D01*
X0037969Y0183281D01*
X0036619Y0181931D01*
X0034855Y0181200D01*
X0028145Y0181200D01*
X0026381Y0181931D01*
X0025028Y0183287D02*
X0017155Y0183287D01*
X0017600Y0180888D02*
X0036297Y0180888D01*
X0037972Y0183287D02*
X0038696Y0183287D01*
X0038700Y0185685D02*
X0041094Y0185685D01*
X0043493Y0188084D02*
X0038232Y0188084D01*
X0035622Y0190482D02*
X0045891Y0190482D01*
X0048290Y0192881D02*
X0017323Y0192881D01*
X0017600Y0190482D02*
X0027378Y0190482D01*
X0024768Y0188084D02*
X0016895Y0188084D01*
X0015441Y0185685D02*
X0024300Y0185685D01*
X0031500Y0176000D02*
X0036500Y0176000D01*
X0054000Y0193500D01*
X0071500Y0193500D01*
X0075250Y0189750D01*
X0099000Y0213500D01*
X0156500Y0213500D01*
X0189000Y0246000D01*
X0201500Y0246000D01*
X0197318Y0250445D02*
X0193445Y0250445D01*
X0195844Y0252844D02*
X0324656Y0252844D01*
X0322258Y0255242D02*
X0198242Y0255242D01*
X0200641Y0257641D02*
X0319859Y0257641D01*
X0315227Y0260039D02*
X0207984Y0260039D01*
X0205682Y0250445D02*
X0217318Y0250445D01*
X0218045Y0251171D02*
X0216329Y0249455D01*
X0215400Y0247213D01*
X0215400Y0244787D01*
X0216329Y0242545D01*
X0218045Y0240829D01*
X0220287Y0239900D01*
X0222713Y0239900D01*
X0224955Y0240829D01*
X0226500Y0242373D01*
X0228045Y0240829D01*
X0230287Y0239900D01*
X0232713Y0239900D01*
X0234955Y0240829D01*
X0236671Y0242545D01*
X0237600Y0244787D01*
X0237600Y0247213D01*
X0236671Y0249455D01*
X0234955Y0251171D01*
X0232713Y0252100D01*
X0230287Y0252100D01*
X0228045Y0251171D01*
X0226500Y0249627D01*
X0224955Y0251171D01*
X0222713Y0252100D01*
X0220287Y0252100D01*
X0218045Y0251171D01*
X0215745Y0248047D02*
X0207255Y0248047D01*
X0207600Y0245648D02*
X0215400Y0245648D01*
X0216037Y0243250D02*
X0206963Y0243250D01*
X0205276Y0240851D02*
X0218022Y0240851D01*
X0224978Y0240851D02*
X0228022Y0240851D01*
X0234978Y0240851D02*
X0243022Y0240851D01*
X0243045Y0240829D02*
X0245287Y0239900D01*
X0247713Y0239900D01*
X0249955Y0240829D01*
X0251671Y0242545D01*
X0251688Y0242585D01*
X0252000Y0242156D01*
X0252656Y0241500D01*
X0253408Y0240954D01*
X0254235Y0240532D01*
X0255118Y0240245D01*
X0256036Y0240100D01*
X0256500Y0240100D01*
X0256964Y0240100D01*
X0257882Y0240245D01*
X0258765Y0240532D01*
X0259592Y0240954D01*
X0260344Y0241500D01*
X0261000Y0242156D01*
X0261546Y0242908D01*
X0261968Y0243735D01*
X0262255Y0244618D01*
X0262400Y0245536D01*
X0262400Y0246000D01*
X0262400Y0246464D01*
X0262255Y0247382D01*
X0261968Y0248265D01*
X0261546Y0249092D01*
X0261000Y0249844D01*
X0260344Y0250500D01*
X0259592Y0251046D01*
X0258765Y0251468D01*
X0257882Y0251755D01*
X0256964Y0251900D01*
X0256500Y0251900D01*
X0256500Y0246000D01*
X0256500Y0228500D01*
X0256500Y0221663D02*
X0256500Y0221663D01*
X0254836Y0221663D02*
X0248768Y0221663D01*
X0244232Y0221663D02*
X0205790Y0221663D01*
X0206421Y0219265D02*
X0241250Y0219265D01*
X0240400Y0216866D02*
X0207336Y0216866D01*
X0207206Y0214468D02*
X0239876Y0214468D01*
X0237478Y0212069D02*
X0205913Y0212069D01*
X0206456Y0209670D02*
X0235079Y0209670D01*
X0232681Y0207272D02*
X0207576Y0207272D01*
X0207600Y0204873D02*
X0230282Y0204873D01*
X0227884Y0202475D02*
X0206602Y0202475D01*
X0206050Y0200076D02*
X0225485Y0200076D01*
X0223087Y0197678D02*
X0207408Y0197678D01*
X0207600Y0195279D02*
X0220688Y0195279D01*
X0218382Y0192881D02*
X0206811Y0192881D01*
X0207356Y0190482D02*
X0205644Y0190482D01*
X0201500Y0186000D02*
X0211500Y0186000D01*
X0215644Y0190482D02*
X0217356Y0190482D01*
X0221500Y0191000D02*
X0221500Y0186000D01*
X0221500Y0191000D02*
X0246500Y0216000D01*
X0251196Y0212069D02*
X0252087Y0212069D01*
X0256500Y0212069D02*
X0256500Y0212069D01*
X0256500Y0210100D02*
X0256500Y0216000D01*
X0256500Y0216000D01*
X0256500Y0210100D01*
X0256500Y0214468D02*
X0256500Y0214468D01*
X0256500Y0216866D02*
X0256500Y0216866D01*
X0256500Y0219265D02*
X0256500Y0219265D01*
X0258164Y0221663D02*
X0338300Y0221663D01*
X0338300Y0219265D02*
X0261421Y0219265D01*
X0262336Y0216866D02*
X0338300Y0216866D01*
X0338300Y0214468D02*
X0262206Y0214468D01*
X0260913Y0212069D02*
X0338300Y0212069D01*
X0338300Y0209670D02*
X0245262Y0209670D01*
X0242863Y0207272D02*
X0338300Y0207272D01*
X0338300Y0204873D02*
X0240465Y0204873D01*
X0238066Y0202475D02*
X0338300Y0202475D01*
X0338300Y0200076D02*
X0235668Y0200076D01*
X0233269Y0197678D02*
X0338300Y0197678D01*
X0338300Y0195279D02*
X0230871Y0195279D01*
X0228472Y0192881D02*
X0338300Y0192881D01*
X0338300Y0190482D02*
X0260361Y0190482D01*
X0262027Y0188084D02*
X0338300Y0188084D01*
X0338300Y0185685D02*
X0262400Y0185685D01*
X0261739Y0183287D02*
X0338300Y0183287D01*
X0338300Y0180888D02*
X0259464Y0180888D01*
X0256500Y0180888D02*
X0256500Y0180888D01*
X0256500Y0180100D02*
X0256500Y0186000D01*
X0256500Y0186000D01*
X0256500Y0180100D01*
X0253536Y0180888D02*
X0250015Y0180888D01*
X0256500Y0183287D02*
X0256500Y0183287D01*
X0256500Y0185685D02*
X0256500Y0185685D01*
X0256500Y0188084D02*
X0256500Y0188084D01*
X0256500Y0190482D02*
X0256500Y0190482D01*
X0252639Y0190482D02*
X0250644Y0190482D01*
X0246500Y0186000D02*
X0236500Y0176000D01*
X0221500Y0176000D01*
X0225421Y0171294D02*
X0338300Y0171294D01*
X0338300Y0168896D02*
X0238695Y0168896D01*
X0241094Y0166497D02*
X0338300Y0166497D01*
X0338300Y0164099D02*
X0243492Y0164099D01*
X0248678Y0161700D02*
X0254951Y0161700D01*
X0256500Y0161700D02*
X0256500Y0161700D01*
X0258049Y0161700D02*
X0338300Y0161700D01*
X0338300Y0159302D02*
X0261394Y0159302D01*
X0262330Y0156903D02*
X0338300Y0156903D01*
X0338300Y0154505D02*
X0262218Y0154505D01*
X0260950Y0152106D02*
X0338300Y0152106D01*
X0338300Y0173693D02*
X0239284Y0173693D01*
X0241682Y0176091D02*
X0338300Y0176091D01*
X0338300Y0178490D02*
X0244081Y0178490D01*
X0238696Y0183287D02*
X0226979Y0183287D01*
X0227600Y0185685D02*
X0240400Y0185685D01*
X0240761Y0188084D02*
X0227239Y0188084D01*
X0226074Y0190482D02*
X0242356Y0190482D01*
X0236297Y0180888D02*
X0225238Y0180888D01*
X0211500Y0176000D02*
X0201500Y0176000D01*
X0195853Y0173693D02*
X0100100Y0173693D01*
X0100218Y0176091D02*
X0112782Y0176091D01*
X0108919Y0178490D02*
X0102063Y0178490D01*
X0102600Y0180888D02*
X0106520Y0180888D01*
X0104122Y0183287D02*
X0102155Y0183287D01*
X0101723Y0185685D02*
X0100441Y0185685D01*
X0101500Y0191000D02*
X0096500Y0191000D01*
X0101500Y0191000D02*
X0111500Y0181000D01*
X0116500Y0181000D01*
X0120218Y0176091D02*
X0137782Y0176091D01*
X0138045Y0175829D02*
X0140287Y0174900D01*
X0142713Y0174900D01*
X0144955Y0175829D01*
X0146671Y0177545D01*
X0147600Y0179787D01*
X0147600Y0182213D01*
X0147532Y0182376D01*
X0151961Y0177948D01*
X0153284Y0177400D01*
X0156473Y0177400D01*
X0158045Y0175829D01*
X0160287Y0174900D01*
X0162713Y0174900D01*
X0164955Y0175829D01*
X0166671Y0177545D01*
X0167600Y0179787D01*
X0167600Y0182213D01*
X0166671Y0184455D01*
X0164955Y0186171D01*
X0164915Y0186188D01*
X0165344Y0186500D01*
X0166000Y0187156D01*
X0166546Y0187908D01*
X0166968Y0188735D01*
X0167255Y0189618D01*
X0167400Y0190536D01*
X0167400Y0191000D01*
X0167400Y0191464D01*
X0167255Y0192382D01*
X0166968Y0193265D01*
X0166546Y0194092D01*
X0166000Y0194844D01*
X0165344Y0195500D01*
X0164592Y0196046D01*
X0163765Y0196468D01*
X0162882Y0196755D01*
X0161964Y0196900D01*
X0161500Y0196900D01*
X0161500Y0191000D01*
X0161500Y0191000D01*
X0167400Y0191000D01*
X0161500Y0191000D01*
X0161500Y0191000D01*
X0161500Y0191000D01*
X0155600Y0191000D01*
X0155600Y0191464D01*
X0155745Y0192382D01*
X0156032Y0193265D01*
X0156454Y0194092D01*
X0157000Y0194844D01*
X0157656Y0195500D01*
X0158408Y0196046D01*
X0159235Y0196468D01*
X0160118Y0196755D01*
X0161036Y0196900D01*
X0161500Y0196900D01*
X0161500Y0191000D01*
X0155600Y0191000D01*
X0155600Y0190536D01*
X0155745Y0189618D01*
X0156032Y0188735D01*
X0156454Y0187908D01*
X0157000Y0187156D01*
X0157656Y0186500D01*
X0158085Y0186188D01*
X0158045Y0186171D01*
X0156473Y0184600D01*
X0155491Y0184600D01*
X0147404Y0192688D01*
X0146671Y0194455D01*
X0144955Y0196171D01*
X0142713Y0197100D01*
X0140287Y0197100D01*
X0138045Y0196171D01*
X0136329Y0194455D01*
X0135400Y0192213D01*
X0135400Y0189787D01*
X0136329Y0187545D01*
X0137873Y0186000D01*
X0136329Y0184455D01*
X0135400Y0182213D01*
X0135400Y0179787D01*
X0136329Y0177545D01*
X0138045Y0175829D01*
X0135937Y0178490D02*
X0122063Y0178490D01*
X0122600Y0180888D02*
X0135400Y0180888D01*
X0135845Y0183287D02*
X0122155Y0183287D01*
X0120441Y0185685D02*
X0137559Y0185685D01*
X0136105Y0188084D02*
X0121636Y0188084D01*
X0122392Y0190482D02*
X0135400Y0190482D01*
X0135677Y0192881D02*
X0122092Y0192881D01*
X0120564Y0195279D02*
X0137153Y0195279D01*
X0141500Y0191000D02*
X0144000Y0191000D01*
X0154000Y0181000D01*
X0161500Y0181000D01*
X0165218Y0176091D02*
X0195400Y0176091D01*
X0195929Y0178490D02*
X0167063Y0178490D01*
X0167600Y0180888D02*
X0197762Y0180888D01*
X0196021Y0183287D02*
X0167155Y0183287D01*
X0165441Y0185685D02*
X0195400Y0185685D01*
X0195400Y0187213D02*
X0196329Y0189455D01*
X0197873Y0191000D01*
X0196329Y0192545D01*
X0195400Y0194787D01*
X0195400Y0197213D01*
X0196329Y0199455D01*
X0197873Y0201000D01*
X0196329Y0202545D01*
X0195400Y0204787D01*
X0195400Y0207213D01*
X0196329Y0209455D01*
X0198045Y0211171D01*
X0198085Y0211188D01*
X0197656Y0211500D01*
X0197000Y0212156D01*
X0196454Y0212908D01*
X0196032Y0213735D01*
X0195745Y0214618D01*
X0195600Y0215536D01*
X0195600Y0216000D01*
X0201500Y0216000D01*
X0201500Y0216000D01*
X0201500Y0216000D01*
X0195600Y0216000D01*
X0195600Y0216464D01*
X0195745Y0217382D01*
X0196032Y0218265D01*
X0196454Y0219092D01*
X0197000Y0219844D01*
X0197656Y0220500D01*
X0198085Y0220812D01*
X0198045Y0220829D01*
X0196329Y0222545D01*
X0195400Y0224787D01*
X0195400Y0227213D01*
X0196329Y0229455D01*
X0197873Y0231000D01*
X0196473Y0232400D01*
X0187991Y0232400D01*
X0162052Y0206461D01*
X0161039Y0205448D01*
X0159716Y0204900D01*
X0102991Y0204900D01*
X0095124Y0197032D01*
X0095287Y0197100D01*
X0097713Y0197100D01*
X0099955Y0196171D01*
X0101527Y0194600D01*
X0102216Y0194600D01*
X0103539Y0194052D01*
X0104552Y0193039D01*
X0112232Y0185359D01*
X0113045Y0186171D01*
X0113085Y0186188D01*
X0112656Y0186500D01*
X0112000Y0187156D01*
X0111454Y0187908D01*
X0111032Y0188735D01*
X0110745Y0189618D01*
X0110600Y0190536D01*
X0110600Y0191000D01*
X0116500Y0191000D01*
X0116500Y0192881D02*
X0116500Y0192881D01*
X0116500Y0195279D02*
X0116500Y0195279D01*
X0112436Y0195279D02*
X0100847Y0195279D01*
X0104710Y0192881D02*
X0110908Y0192881D01*
X0110608Y0190482D02*
X0107109Y0190482D01*
X0109507Y0188084D02*
X0111364Y0188084D01*
X0111906Y0185685D02*
X0112559Y0185685D01*
X0096500Y0181000D02*
X0096500Y0161000D01*
X0101030Y0156903D02*
X0101970Y0156903D01*
X0103832Y0166497D02*
X0100100Y0166497D01*
X0092900Y0166497D02*
X0088124Y0166497D01*
X0089731Y0168896D02*
X0092900Y0168896D01*
X0092900Y0171294D02*
X0090100Y0171294D01*
X0089487Y0173693D02*
X0092900Y0173693D01*
X0092782Y0176091D02*
X0087718Y0176091D01*
X0089563Y0178490D02*
X0090937Y0178490D01*
X0090400Y0180888D02*
X0090100Y0180888D01*
X0089655Y0183287D02*
X0090845Y0183287D01*
X0092559Y0185685D02*
X0087941Y0185685D01*
X0087909Y0188084D02*
X0091105Y0188084D01*
X0090400Y0190482D02*
X0088574Y0190482D01*
X0084000Y0191000D02*
X0101500Y0208500D01*
X0159000Y0208500D01*
X0186500Y0236000D01*
X0201500Y0236000D01*
X0205384Y0231257D02*
X0338300Y0231257D01*
X0338300Y0228859D02*
X0206919Y0228859D01*
X0207600Y0226460D02*
X0338300Y0226460D01*
X0338300Y0224062D02*
X0207300Y0224062D01*
X0207131Y0233656D02*
X0338300Y0233656D01*
X0338198Y0236054D02*
X0207600Y0236054D01*
X0207087Y0238453D02*
X0337795Y0238453D01*
X0336649Y0240851D02*
X0259391Y0240851D01*
X0256500Y0240851D02*
X0256500Y0240851D01*
X0256500Y0240100D02*
X0256500Y0246000D01*
X0262400Y0246000D01*
X0256500Y0246000D01*
X0256500Y0246000D01*
X0256500Y0246000D01*
X0256500Y0246000D01*
X0256500Y0251900D01*
X0256036Y0251900D01*
X0255118Y0251755D01*
X0254235Y0251468D01*
X0253408Y0251046D01*
X0252656Y0250500D01*
X0252000Y0249844D01*
X0251688Y0249415D01*
X0251671Y0249455D01*
X0249955Y0251171D01*
X0247713Y0252100D01*
X0245287Y0252100D01*
X0243045Y0251171D01*
X0241329Y0249455D01*
X0240400Y0247213D01*
X0240400Y0244787D01*
X0241329Y0242545D01*
X0243045Y0240829D01*
X0241037Y0243250D02*
X0236963Y0243250D01*
X0237600Y0245648D02*
X0240400Y0245648D01*
X0240745Y0248047D02*
X0237255Y0248047D01*
X0235682Y0250445D02*
X0242318Y0250445D01*
X0250682Y0250445D02*
X0252601Y0250445D01*
X0256500Y0250445D02*
X0256500Y0250445D01*
X0256500Y0248047D02*
X0256500Y0248047D01*
X0256500Y0246000D02*
X0256500Y0240100D01*
X0253609Y0240851D02*
X0249978Y0240851D01*
X0256500Y0243250D02*
X0256500Y0243250D01*
X0256500Y0245648D02*
X0256500Y0245648D01*
X0260399Y0250445D02*
X0327055Y0250445D01*
X0329453Y0248047D02*
X0262039Y0248047D01*
X0262400Y0245648D02*
X0331852Y0245648D01*
X0334250Y0243250D02*
X0261720Y0243250D01*
X0227318Y0250445D02*
X0225682Y0250445D01*
X0197616Y0231257D02*
X0186848Y0231257D01*
X0184450Y0228859D02*
X0196081Y0228859D01*
X0195400Y0226460D02*
X0182051Y0226460D01*
X0179653Y0224062D02*
X0195700Y0224062D01*
X0197210Y0221663D02*
X0177254Y0221663D01*
X0174856Y0219265D02*
X0196579Y0219265D01*
X0195664Y0216866D02*
X0172457Y0216866D01*
X0170059Y0214468D02*
X0195794Y0214468D01*
X0197087Y0212069D02*
X0167660Y0212069D01*
X0165262Y0209670D02*
X0196544Y0209670D01*
X0195424Y0207272D02*
X0162863Y0207272D01*
X0161500Y0195279D02*
X0161500Y0195279D01*
X0161500Y0192881D02*
X0161500Y0192881D01*
X0157436Y0195279D02*
X0145847Y0195279D01*
X0147323Y0192881D02*
X0155908Y0192881D01*
X0155608Y0190482D02*
X0149609Y0190482D01*
X0152007Y0188084D02*
X0156364Y0188084D01*
X0157559Y0185685D02*
X0154406Y0185685D01*
X0149020Y0180888D02*
X0147600Y0180888D01*
X0147063Y0178490D02*
X0151419Y0178490D01*
X0145218Y0176091D02*
X0157782Y0176091D01*
X0159168Y0166497D02*
X0166139Y0166497D01*
X0165400Y0164099D02*
X0161819Y0164099D01*
X0162600Y0161700D02*
X0164322Y0161700D01*
X0160517Y0154505D02*
X0137218Y0154505D01*
X0137400Y0156000D02*
X0131500Y0156000D01*
X0137400Y0156000D01*
X0137330Y0156903D02*
X0141970Y0156903D01*
X0140601Y0159302D02*
X0136394Y0159302D01*
X0133049Y0161700D02*
X0140400Y0161700D01*
X0141181Y0164099D02*
X0132600Y0164099D01*
X0131861Y0166497D02*
X0143832Y0166497D01*
X0149168Y0166497D02*
X0153832Y0166497D01*
X0151970Y0156903D02*
X0151030Y0156903D01*
X0147713Y0147100D02*
X0145287Y0147100D01*
X0143045Y0146171D01*
X0141329Y0144455D01*
X0140400Y0142213D01*
X0140400Y0139787D01*
X0141329Y0137545D01*
X0143045Y0135829D01*
X0145287Y0134900D01*
X0147713Y0134900D01*
X0149955Y0135829D01*
X0151671Y0137545D01*
X0152600Y0139787D01*
X0152600Y0142213D01*
X0151671Y0144455D01*
X0149955Y0146171D01*
X0147713Y0147100D01*
X0151216Y0144911D02*
X0181784Y0144911D01*
X0181329Y0144455D02*
X0180400Y0142213D01*
X0180400Y0139787D01*
X0181329Y0137545D01*
X0183045Y0135829D01*
X0185287Y0134900D01*
X0187713Y0134900D01*
X0189955Y0135829D01*
X0191671Y0137545D01*
X0192600Y0139787D01*
X0192600Y0142213D01*
X0191671Y0144455D01*
X0189955Y0146171D01*
X0187713Y0147100D01*
X0185287Y0147100D01*
X0183045Y0146171D01*
X0181329Y0144455D01*
X0180524Y0142512D02*
X0152476Y0142512D01*
X0152600Y0140114D02*
X0180400Y0140114D01*
X0181258Y0137715D02*
X0151742Y0137715D01*
X0148719Y0135317D02*
X0184281Y0135317D01*
X0188719Y0135317D02*
X0197190Y0135317D01*
X0196258Y0137715D02*
X0191742Y0137715D01*
X0192600Y0140114D02*
X0195400Y0140114D01*
X0195524Y0142512D02*
X0192476Y0142512D01*
X0191216Y0144911D02*
X0196784Y0144911D01*
X0201500Y0141000D02*
X0211500Y0141000D01*
X0216216Y0144911D02*
X0216784Y0144911D01*
X0206784Y0144911D02*
X0206216Y0144911D01*
X0206233Y0152106D02*
X0206767Y0152106D01*
X0211500Y0166000D02*
X0201500Y0166000D01*
X0221500Y0166000D02*
X0236500Y0166000D01*
X0246500Y0156000D01*
X0251233Y0152106D02*
X0252050Y0152106D01*
X0256500Y0152106D02*
X0256500Y0152106D01*
X0256500Y0150100D02*
X0256500Y0156000D01*
X0256500Y0156000D01*
X0256500Y0150100D01*
X0256500Y0154505D02*
X0256500Y0154505D01*
X0256500Y0156903D02*
X0256500Y0156903D01*
X0256500Y0159302D02*
X0256500Y0159302D01*
X0235709Y0161700D02*
X0225827Y0161700D01*
X0195761Y0188084D02*
X0166636Y0188084D01*
X0167392Y0190482D02*
X0197356Y0190482D01*
X0196189Y0192881D02*
X0167092Y0192881D01*
X0165564Y0195279D02*
X0195400Y0195279D01*
X0195592Y0197678D02*
X0095769Y0197678D01*
X0098168Y0200076D02*
X0196950Y0200076D01*
X0196398Y0202475D02*
X0100566Y0202475D01*
X0102965Y0204873D02*
X0195400Y0204873D01*
X0168587Y0168896D02*
X0129413Y0168896D01*
X0131500Y0156000D02*
X0131500Y0156000D01*
X0131500Y0150100D01*
X0131500Y0156000D01*
X0131500Y0156000D01*
X0131500Y0154505D02*
X0131500Y0154505D01*
X0131500Y0152106D02*
X0131500Y0152106D01*
X0127050Y0152106D02*
X0126233Y0152106D01*
X0128045Y0146171D02*
X0130287Y0147100D01*
X0132713Y0147100D01*
X0134955Y0146171D01*
X0136671Y0144455D01*
X0137600Y0142213D01*
X0137600Y0139787D01*
X0136671Y0137545D01*
X0134955Y0135829D01*
X0132713Y0134900D01*
X0130287Y0134900D01*
X0128045Y0135829D01*
X0126329Y0137545D01*
X0125400Y0139787D01*
X0125400Y0142213D01*
X0126329Y0144455D01*
X0128045Y0146171D01*
X0126784Y0144911D02*
X0096216Y0144911D01*
X0096671Y0144455D02*
X0094955Y0146171D01*
X0092713Y0147100D01*
X0090287Y0147100D01*
X0088045Y0146171D01*
X0086329Y0144455D01*
X0085400Y0142213D01*
X0085400Y0139787D01*
X0086329Y0137545D01*
X0088045Y0135829D01*
X0090287Y0134900D01*
X0092713Y0134900D01*
X0094955Y0135829D01*
X0096671Y0137545D01*
X0097600Y0139787D01*
X0097600Y0142213D01*
X0096671Y0144455D01*
X0097476Y0142512D02*
X0125524Y0142512D01*
X0125400Y0140114D02*
X0097600Y0140114D01*
X0096742Y0137715D02*
X0126258Y0137715D01*
X0129281Y0135317D02*
X0093719Y0135317D01*
X0089281Y0135317D02*
X0068408Y0135317D01*
X0067600Y0132918D02*
X0195692Y0132918D01*
X0195400Y0130520D02*
X0181738Y0130520D01*
X0182350Y0129909D02*
X0180409Y0131850D01*
X0177872Y0132900D01*
X0175127Y0132900D01*
X0172591Y0131850D01*
X0170650Y0129909D01*
X0169600Y0127372D01*
X0169600Y0124627D01*
X0170650Y0122091D01*
X0172591Y0120150D01*
X0175127Y0119100D01*
X0177872Y0119100D01*
X0180409Y0120150D01*
X0182350Y0122091D01*
X0183400Y0124627D01*
X0183400Y0127372D01*
X0182350Y0129909D01*
X0183090Y0128121D02*
X0196090Y0128121D01*
X0197596Y0125723D02*
X0183400Y0125723D01*
X0182860Y0123324D02*
X0195860Y0123324D01*
X0195400Y0120926D02*
X0181184Y0120926D01*
X0171816Y0120926D02*
X0151184Y0120926D01*
X0150409Y0120150D02*
X0152350Y0122091D01*
X0153400Y0124627D01*
X0153400Y0127372D01*
X0152350Y0129909D01*
X0150409Y0131850D01*
X0147872Y0132900D01*
X0145127Y0132900D01*
X0142591Y0131850D01*
X0140650Y0129909D01*
X0139600Y0127372D01*
X0139600Y0124627D01*
X0140650Y0122091D01*
X0142591Y0120150D01*
X0145127Y0119100D01*
X0147872Y0119100D01*
X0150409Y0120150D01*
X0152860Y0123324D02*
X0170140Y0123324D01*
X0169600Y0125723D02*
X0153400Y0125723D01*
X0153090Y0128121D02*
X0169910Y0128121D01*
X0171262Y0130520D02*
X0151738Y0130520D01*
X0144281Y0135317D02*
X0133719Y0135317D01*
X0132872Y0132900D02*
X0130127Y0132900D01*
X0127591Y0131850D01*
X0125650Y0129909D01*
X0124600Y0127372D01*
X0124600Y0124627D01*
X0125650Y0122091D01*
X0127591Y0120150D01*
X0130127Y0119100D01*
X0132872Y0119100D01*
X0135409Y0120150D01*
X0137350Y0122091D01*
X0138400Y0124627D01*
X0138400Y0127372D01*
X0137350Y0129909D01*
X0135409Y0131850D01*
X0132872Y0132900D01*
X0136738Y0130520D02*
X0141262Y0130520D01*
X0139910Y0128121D02*
X0138090Y0128121D01*
X0138400Y0125723D02*
X0139600Y0125723D01*
X0140140Y0123324D02*
X0137860Y0123324D01*
X0136184Y0120926D02*
X0141816Y0120926D01*
X0126816Y0120926D02*
X0106184Y0120926D01*
X0105409Y0120150D02*
X0107350Y0122091D01*
X0108400Y0124627D01*
X0108400Y0127372D01*
X0107350Y0129909D01*
X0105409Y0131850D01*
X0102872Y0132900D01*
X0100127Y0132900D01*
X0097591Y0131850D01*
X0095650Y0129909D01*
X0094600Y0127372D01*
X0094600Y0124627D01*
X0095650Y0122091D01*
X0097591Y0120150D01*
X0100127Y0119100D01*
X0102872Y0119100D01*
X0105409Y0120150D01*
X0107860Y0123324D02*
X0125140Y0123324D01*
X0124600Y0125723D02*
X0108400Y0125723D01*
X0108090Y0128121D02*
X0124910Y0128121D01*
X0126262Y0130520D02*
X0106738Y0130520D01*
X0096262Y0130520D02*
X0066868Y0130520D01*
X0065177Y0128121D02*
X0094910Y0128121D01*
X0094600Y0125723D02*
X0066981Y0125723D01*
X0067400Y0123324D02*
X0095140Y0123324D01*
X0096816Y0120926D02*
X0066810Y0120926D01*
X0067248Y0118527D02*
X0195922Y0118527D01*
X0197745Y0116129D02*
X0093687Y0116129D01*
X0094571Y0113730D02*
X0196028Y0113730D01*
X0195400Y0111332D02*
X0094571Y0111332D01*
X0094571Y0108933D02*
X0195754Y0108933D01*
X0197339Y0106534D02*
X0094266Y0106534D01*
X0083577Y0106534D02*
X0082205Y0106534D01*
X0079079Y0106534D02*
X0079079Y0106534D01*
X0079079Y0108933D02*
X0079079Y0108933D01*
X0079079Y0111000D02*
X0073629Y0111000D01*
X0079079Y0111000D01*
X0079079Y0116450D01*
X0078650Y0116450D01*
X0077803Y0116316D01*
X0076987Y0116051D01*
X0076222Y0115661D01*
X0075528Y0115157D01*
X0074922Y0114550D01*
X0074417Y0113856D01*
X0074028Y0113092D01*
X0073763Y0112276D01*
X0073629Y0111429D01*
X0073629Y0111000D01*
X0073629Y0110571D01*
X0073763Y0109724D01*
X0074028Y0108908D01*
X0074417Y0108144D01*
X0074922Y0107450D01*
X0075528Y0106843D01*
X0076222Y0106339D01*
X0074020Y0108933D02*
X0067439Y0108933D01*
X0067600Y0111332D02*
X0073629Y0111332D01*
X0074353Y0113730D02*
X0067600Y0113730D01*
X0067600Y0116129D02*
X0077226Y0116129D01*
X0079079Y0116129D02*
X0079079Y0116129D01*
X0080931Y0116129D02*
X0084156Y0116129D01*
X0079079Y0113730D02*
X0079079Y0113730D01*
X0079079Y0111332D02*
X0079079Y0111332D01*
X0079079Y0111000D02*
X0079079Y0111000D01*
X0086258Y0137715D02*
X0070806Y0137715D01*
X0073205Y0140114D02*
X0085400Y0140114D01*
X0085524Y0142512D02*
X0075603Y0142512D01*
X0077445Y0144911D02*
X0086784Y0144911D01*
X0077600Y0152106D02*
X0116767Y0152106D01*
X0135950Y0152106D02*
X0161767Y0152106D01*
X0171233Y0152106D02*
X0172050Y0152106D01*
X0176500Y0152106D02*
X0176500Y0152106D01*
X0176500Y0150100D02*
X0176500Y0156000D01*
X0176500Y0156000D01*
X0176500Y0150100D01*
X0176500Y0154505D02*
X0176500Y0154505D01*
X0201500Y0131000D02*
X0211500Y0131000D01*
X0211500Y0121000D02*
X0201500Y0121000D01*
X0201500Y0111000D02*
X0219000Y0111000D01*
X0214839Y0106534D02*
X0205661Y0106534D01*
X0223161Y0106534D02*
X0225122Y0106534D01*
X0224833Y0116129D02*
X0226069Y0116129D01*
X0226862Y0118527D02*
X0228882Y0118527D01*
X0256500Y0123324D02*
X0256500Y0123324D01*
X0256500Y0125723D02*
X0256500Y0125723D01*
X0256500Y0128121D02*
X0256500Y0128121D01*
X0256500Y0130520D02*
X0256500Y0130520D01*
X0257935Y0101737D02*
X0338300Y0101737D01*
X0338300Y0099339D02*
X0261367Y0099339D01*
X0262325Y0096940D02*
X0338300Y0096940D01*
X0338300Y0094542D02*
X0262230Y0094542D01*
X0260987Y0092143D02*
X0338300Y0092143D01*
X0309810Y0041426D02*
X0307458Y0042400D01*
X0304912Y0042400D01*
X0302560Y0041426D01*
X0300759Y0039625D01*
X0299785Y0037273D01*
X0299785Y0034727D01*
X0300759Y0032375D01*
X0302560Y0030574D01*
X0304912Y0029600D01*
X0307458Y0029600D01*
X0309810Y0030574D01*
X0311611Y0032375D01*
X0312585Y0034727D01*
X0312585Y0037273D01*
X0311611Y0039625D01*
X0309810Y0041426D01*
X0308968Y0041775D02*
X0325881Y0041775D01*
X0325100Y0039376D02*
X0311714Y0039376D01*
X0312585Y0036978D02*
X0325100Y0036978D01*
X0325100Y0034579D02*
X0312524Y0034579D01*
X0311417Y0032181D02*
X0325100Y0032181D01*
X0326583Y0029782D02*
X0307898Y0029782D01*
X0304472Y0029782D02*
X0291417Y0029782D01*
X0290977Y0029600D02*
X0291859Y0029965D01*
X0292535Y0030641D01*
X0292900Y0031523D01*
X0292900Y0040477D01*
X0292535Y0041359D01*
X0291859Y0042035D01*
X0290977Y0042400D01*
X0282023Y0042400D01*
X0281141Y0042035D01*
X0280465Y0041359D01*
X0280100Y0040477D01*
X0280100Y0031523D01*
X0280465Y0030641D01*
X0281141Y0029965D01*
X0282023Y0029600D01*
X0290977Y0029600D01*
X0292900Y0032181D02*
X0300953Y0032181D01*
X0299846Y0034579D02*
X0292900Y0034579D01*
X0292900Y0036978D02*
X0299785Y0036978D01*
X0300656Y0039376D02*
X0292900Y0039376D01*
X0292119Y0041775D02*
X0303402Y0041775D01*
X0280881Y0041775D02*
X0263968Y0041775D01*
X0264810Y0041426D02*
X0262458Y0042400D01*
X0259912Y0042400D01*
X0257560Y0041426D01*
X0255759Y0039625D01*
X0254785Y0037273D01*
X0254785Y0034727D01*
X0255759Y0032375D01*
X0257560Y0030574D01*
X0259912Y0029600D01*
X0262458Y0029600D01*
X0264810Y0030574D01*
X0266611Y0032375D01*
X0267585Y0034727D01*
X0267585Y0037273D01*
X0266611Y0039625D01*
X0264810Y0041426D01*
X0266714Y0039376D02*
X0280100Y0039376D01*
X0280100Y0036978D02*
X0267585Y0036978D01*
X0267524Y0034579D02*
X0280100Y0034579D01*
X0280100Y0032181D02*
X0266417Y0032181D01*
X0262898Y0029782D02*
X0281583Y0029782D01*
X0259472Y0029782D02*
X0246417Y0029782D01*
X0247900Y0032181D02*
X0255953Y0032181D01*
X0254846Y0034579D02*
X0247900Y0034579D01*
X0247900Y0036978D02*
X0254785Y0036978D01*
X0255656Y0039376D02*
X0247900Y0039376D01*
X0247119Y0041775D02*
X0258402Y0041775D01*
X0190300Y0039376D02*
X0186400Y0039376D01*
X0185419Y0036978D02*
X0190300Y0036978D01*
X0190300Y0034579D02*
X0183765Y0034579D01*
X0181366Y0032181D02*
X0190300Y0032181D01*
X0141258Y0137715D02*
X0136742Y0137715D01*
X0137600Y0140114D02*
X0140400Y0140114D01*
X0140524Y0142512D02*
X0137476Y0142512D01*
X0136216Y0144911D02*
X0141784Y0144911D01*
X0084000Y0171000D02*
X0079000Y0166000D01*
X0070079Y0171294D02*
X0065082Y0171294D01*
X0067792Y0168896D02*
X0068597Y0168896D01*
X0069673Y0161700D02*
X0066062Y0161700D01*
X0064855Y0160800D02*
X0058145Y0160800D01*
X0056381Y0160069D01*
X0055031Y0158719D01*
X0054300Y0156955D01*
X0054300Y0155045D01*
X0055031Y0153281D01*
X0056381Y0151931D01*
X0058145Y0151200D01*
X0064855Y0151200D01*
X0066619Y0151931D01*
X0067969Y0153281D01*
X0068700Y0155045D01*
X0068700Y0156955D01*
X0067969Y0158719D01*
X0066619Y0160069D01*
X0064855Y0160800D01*
X0067386Y0159302D02*
X0070400Y0159302D01*
X0070400Y0156903D02*
X0068700Y0156903D01*
X0068476Y0154505D02*
X0070400Y0154505D01*
X0070400Y0152106D02*
X0066794Y0152106D01*
X0070400Y0149708D02*
X0042883Y0149708D01*
X0040485Y0152106D02*
X0056206Y0152106D01*
X0054524Y0154505D02*
X0038476Y0154505D01*
X0038700Y0156903D02*
X0054300Y0156903D01*
X0055614Y0159302D02*
X0037386Y0159302D01*
X0036062Y0161700D02*
X0056937Y0161700D01*
X0054692Y0164099D02*
X0038308Y0164099D01*
X0038700Y0166497D02*
X0054300Y0166497D01*
X0055208Y0168896D02*
X0037792Y0168896D01*
X0035082Y0171294D02*
X0057918Y0171294D01*
X0054860Y0173693D02*
X0039284Y0173693D01*
X0041682Y0176091D02*
X0054300Y0176091D01*
X0054936Y0178490D02*
X0044081Y0178490D01*
X0046480Y0180888D02*
X0070262Y0180888D01*
X0067409Y0183003D02*
X0067834Y0183589D01*
X0068163Y0184234D01*
X0068387Y0184923D01*
X0068500Y0185638D01*
X0068500Y0186000D01*
X0061500Y0186000D01*
X0061500Y0186000D01*
X0061500Y0181400D01*
X0064262Y0181400D01*
X0064977Y0181513D01*
X0065666Y0181737D01*
X0066311Y0182066D01*
X0066897Y0182491D01*
X0067409Y0183003D01*
X0067615Y0183287D02*
X0076622Y0183287D01*
X0077738Y0180888D02*
X0077900Y0180888D01*
X0084000Y0181000D02*
X0075250Y0189750D01*
X0071825Y0188084D02*
X0068001Y0188084D01*
X0068500Y0185685D02*
X0074223Y0185685D01*
X0074812Y0195279D02*
X0075688Y0195279D01*
X0078087Y0197678D02*
X0016727Y0197678D01*
X0017600Y0200076D02*
X0080485Y0200076D01*
X0082884Y0202475D02*
X0017492Y0202475D01*
X0016253Y0204873D02*
X0085282Y0204873D01*
X0087681Y0207272D02*
X0016399Y0207272D01*
X0017552Y0209670D02*
X0090079Y0209670D01*
X0092478Y0212069D02*
X0017600Y0212069D01*
X0006601Y0207272D02*
X0004700Y0207272D01*
X0004700Y0204873D02*
X0006747Y0204873D01*
X0005508Y0202475D02*
X0004700Y0202475D01*
X0004700Y0200076D02*
X0005400Y0200076D01*
X0004700Y0197678D02*
X0006273Y0197678D01*
X0007153Y0195279D02*
X0004700Y0195279D01*
X0004700Y0192881D02*
X0005677Y0192881D01*
X0005400Y0190482D02*
X0004700Y0190482D01*
X0004700Y0188084D02*
X0006105Y0188084D01*
X0004700Y0185685D02*
X0007559Y0185685D01*
X0005845Y0183287D02*
X0004700Y0183287D01*
X0004700Y0180888D02*
X0005400Y0180888D01*
X0005937Y0178490D02*
X0004700Y0178490D01*
X0004700Y0176091D02*
X0007782Y0176091D01*
X0006013Y0173693D02*
X0004700Y0173693D01*
X0004700Y0171294D02*
X0005400Y0171294D01*
X0005769Y0168896D02*
X0004700Y0168896D01*
X0004700Y0166497D02*
X0007376Y0166497D01*
X0006459Y0164099D02*
X0004700Y0164099D01*
X0004700Y0161700D02*
X0005637Y0161700D01*
X0005600Y0161000D02*
X0005600Y0160536D01*
X0005745Y0159618D01*
X0006032Y0158735D01*
X0006454Y0157908D01*
X0007000Y0157156D01*
X0007656Y0156500D01*
X0008344Y0156000D01*
X0007656Y0155500D01*
X0007000Y0154844D01*
X0006454Y0154092D01*
X0006032Y0153265D01*
X0005745Y0152382D01*
X0005600Y0151464D01*
X0005600Y0151000D01*
X0011500Y0151000D01*
X0017400Y0151000D01*
X0017400Y0150536D01*
X0017255Y0149618D01*
X0016968Y0148735D01*
X0016546Y0147908D01*
X0016000Y0147156D01*
X0015344Y0146500D01*
X0014915Y0146188D01*
X0014955Y0146171D01*
X0016671Y0144455D01*
X0017600Y0142213D01*
X0017600Y0139787D01*
X0016671Y0137545D01*
X0014955Y0135829D01*
X0012713Y0134900D01*
X0010287Y0134900D01*
X0008045Y0135829D01*
X0006329Y0137545D01*
X0005400Y0139787D01*
X0005400Y0142213D01*
X0006329Y0144455D01*
X0008045Y0146171D01*
X0008085Y0146188D01*
X0007656Y0146500D01*
X0007000Y0147156D01*
X0006454Y0147908D01*
X0006032Y0148735D01*
X0005745Y0149618D01*
X0005600Y0150536D01*
X0005600Y0151000D01*
X0011500Y0151000D01*
X0011500Y0151000D01*
X0011500Y0156900D01*
X0011500Y0161000D01*
X0011500Y0161000D01*
X0005600Y0161000D01*
X0005848Y0159302D02*
X0004700Y0159302D01*
X0004700Y0156903D02*
X0007253Y0156903D01*
X0006754Y0154505D02*
X0004700Y0154505D01*
X0004700Y0152106D02*
X0005702Y0152106D01*
X0005731Y0149708D02*
X0004700Y0149708D01*
X0004700Y0147309D02*
X0006889Y0147309D01*
X0006784Y0144911D02*
X0004700Y0144911D01*
X0004700Y0142512D02*
X0005524Y0142512D01*
X0005400Y0140114D02*
X0004700Y0140114D01*
X0004700Y0137715D02*
X0006258Y0137715D01*
X0004700Y0135317D02*
X0009281Y0135317D01*
X0013719Y0135317D02*
X0047092Y0135317D01*
X0044694Y0137715D02*
X0016742Y0137715D01*
X0017600Y0140114D02*
X0042295Y0140114D01*
X0039897Y0142512D02*
X0017476Y0142512D01*
X0016216Y0144911D02*
X0037498Y0144911D01*
X0035100Y0147309D02*
X0016111Y0147309D01*
X0017269Y0149708D02*
X0032701Y0149708D01*
X0026206Y0152106D02*
X0017298Y0152106D01*
X0016246Y0154505D02*
X0024524Y0154505D01*
X0023006Y0156903D02*
X0015747Y0156903D01*
X0017152Y0159302D02*
X0020607Y0159302D01*
X0018209Y0161700D02*
X0017363Y0161700D01*
X0011500Y0159302D02*
X0011500Y0159302D01*
X0011500Y0156903D02*
X0011500Y0156903D01*
X0011500Y0154505D02*
X0011500Y0154505D01*
X0011500Y0152106D02*
X0011500Y0152106D01*
X0023594Y0166497D02*
X0024300Y0166497D01*
X0025208Y0168896D02*
X0021195Y0168896D01*
X0018797Y0171294D02*
X0027918Y0171294D01*
X0048878Y0183287D02*
X0055385Y0183287D01*
X0055591Y0183003D02*
X0056103Y0182491D01*
X0056689Y0182066D01*
X0057334Y0181737D01*
X0058023Y0181513D01*
X0058738Y0181400D01*
X0061500Y0181400D01*
X0061500Y0186000D01*
X0061500Y0186000D01*
X0061500Y0186000D01*
X0054500Y0186000D01*
X0054500Y0185638D01*
X0054613Y0184923D01*
X0054837Y0184234D01*
X0055166Y0183589D01*
X0055591Y0183003D01*
X0054500Y0185685D02*
X0051277Y0185685D01*
X0053675Y0188084D02*
X0054999Y0188084D01*
X0061500Y0185685D02*
X0061500Y0185685D01*
X0061500Y0183287D02*
X0061500Y0183287D01*
X0061500Y0176000D02*
X0074000Y0176000D01*
X0050688Y0195279D02*
X0015847Y0195279D01*
X0005448Y0209670D02*
X0005170Y0209670D01*
X0045282Y0147309D02*
X0070218Y0147309D01*
X0067820Y0144911D02*
X0047680Y0144911D01*
X0050079Y0142512D02*
X0065421Y0142512D01*
X0063022Y0140114D02*
X0052477Y0140114D01*
X0054876Y0137715D02*
X0057088Y0137715D01*
X0029819Y0132918D02*
X0028181Y0132918D01*
X0028181Y0130520D02*
X0029819Y0130520D01*
X0030076Y0128121D02*
X0027924Y0128121D01*
X0027600Y0125723D02*
X0030400Y0125723D01*
X0030400Y0123324D02*
X0027600Y0123324D01*
X0027600Y0120926D02*
X0030400Y0120926D01*
X0030400Y0118527D02*
X0027600Y0118527D01*
X0027600Y0116129D02*
X0030400Y0116129D01*
X0030400Y0113730D02*
X0027600Y0113730D01*
X0027600Y0111332D02*
X0030400Y0111332D01*
X0030400Y0108933D02*
X0027600Y0108933D01*
X0027600Y0106534D02*
X0030400Y0106534D01*
X0030400Y0104136D02*
X0027818Y0104136D01*
X0028181Y0101737D02*
X0030400Y0101737D01*
X0030400Y0099339D02*
X0028181Y0099339D01*
X0026552Y0096940D02*
X0030400Y0096940D01*
X0024000Y0101000D02*
X0024000Y0131000D01*
X0019819Y0130520D02*
X0004700Y0130520D01*
X0004700Y0132918D02*
X0019819Y0132918D01*
D22*
X0081343Y0076000D02*
X0101500Y0076000D01*
X0081343Y0076000D02*
X0081343Y0053657D01*
X0081185Y0053500D01*
X0081185Y0055685D01*
X0081185Y0053500D02*
X0081185Y0036000D01*
X0106500Y0036000D02*
X0106500Y0041000D01*
X0131500Y0066000D01*
X0171185Y0036000D02*
X0176500Y0041315D01*
X0176500Y0066000D01*
D23*
X0081500Y0076157D02*
X0081343Y0076000D01*
X0081500Y0076157D02*
X0081500Y0086000D01*
X0061500Y0106000D01*
X0061500Y0113500D01*
D24*
X0034000Y0131000D03*
X0024000Y0131000D03*
X0024000Y0101000D03*
X0084000Y0191000D03*
M02*
