%
M48
M72
T01C0.02362
T02C0.02756
T03C0.03200
T04C0.03543
T05C0.03937
T06C0.04000
T07C0.05118
%
T01
X24000Y101000
X24000Y131000
X34000Y131000
X84000Y191000
T02
X79079Y111000
X88921Y111000
T03
X61500Y156000
X61500Y166000
X61500Y176000
X61500Y186000
X31500Y186000
X31500Y176000
X31500Y166000
X31500Y156000
X116500Y181000
X116500Y191000
X126500Y163500
X121500Y156000
X131500Y156000
X161500Y181000
X161500Y191000
X171500Y163500
X166500Y156000
X176500Y156000
X246500Y156000
X256500Y156000
X256500Y126000
X246500Y126000
X246500Y96000
X256500Y96000
X256500Y66000
X246500Y66000
X246500Y186000
X256500Y186000
X256500Y216000
X246500Y216000
X246500Y246000
X256500Y246000
T04
X231500Y246000
X221500Y246000
X221500Y186000
X221500Y176000
X221500Y166000
X221500Y156000
X211500Y156000
X211500Y166000
X211500Y176000
X211500Y186000
X211500Y141000
X211500Y131000
X211500Y121000
X221500Y121000
X221500Y131000
X221500Y141000
X219000Y111000
X229000Y111000
X156500Y161000
X146500Y161000
X141500Y181000
X141500Y191000
X106500Y161000
X96500Y161000
X84000Y171000
X84000Y181000
X74000Y176000
X74000Y166000
X96500Y181000
X96500Y191000
X81343Y76000
X61657Y76000
T05
X61500Y113500
X61500Y123500
X61500Y133500
T06
X91500Y141000
X131500Y141000
X146500Y141000
X186500Y141000
X201500Y141000
X201500Y131000
X201500Y121000
X201500Y111000
X201500Y101000
X201500Y91000
X201500Y81000
X201500Y71000
X201500Y156000
X201500Y166000
X201500Y176000
X201500Y186000
X201500Y196000
X201500Y206000
X201500Y216000
X201500Y226000
X201500Y236000
X201500Y246000
X11500Y211000
X11500Y201000
X11500Y191000
X11500Y181000
X11500Y171000
X11500Y161000
X11500Y151000
X11500Y141000
X11500Y121000
X11500Y111000
X11500Y101000
X11500Y91000
X11500Y81000
X11500Y71000
T07
X16500Y36000
X36185Y36000
X61500Y36000
X81185Y36000
X106500Y36000
X126185Y36000
X151500Y36000
X171185Y36000
X196500Y36000
X216185Y36000
X241500Y36000
X261185Y36000
X286500Y36000
X306185Y36000
X331500Y36000
X351185Y36000
X176500Y66000
X176500Y86000
X146500Y76000
X131500Y66000
X131500Y86000
X101500Y76000
X101500Y126000
X131500Y126000
X146500Y126000
X176500Y126000
M30
